<?xml version="1.0" encoding="utf-8"?>
<!-- Generator: Adobe Illustrator 26.0.3, SVG Export Plug-In . SVG Version: 6.00 Build 0)  -->
<svg version="1.0" id="katman_1" xmlns="http://www.w3.org/2000/svg" xmlns:xlink="http://www.w3.org/1999/xlink" x="0px" y="0px"
	 viewBox="0 0 600 450" style="enable-background:new 0 0 600 450;" xml:space="preserve">
<style type="text/css">
	.st0{fill-rule:evenodd;clip-rule:evenodd;fill:#54AF32;}
</style>
<path class="st0" d="M449,215.5c0-23.9,17.9-35.4,37.2-35.4s36.7,11.7,36.7,35.4H449z M482.8,154.7c-39.3,0-65.1,27.3-65.1,72.3
	c0,55.9,39.4,71.9,67.5,71.9c35.6,0,55.9-24.2,55.9-24.2L523,256.4c-9.6,8.7-20.8,14-37.4,14c-21.9,0-36.7-13-36.7-30.7h97.7
	C546.6,239.6,563.7,154.7,482.8,154.7z"/>
<path class="st0" d="M127.7,213.1c-12.2-1.6-47.4-0.2-47.4-16.9c0-9.9,14.8-15.2,28.4-15.2c21.8,0,36.1,9,40.3,12.1l18.3-19
	c-5.4-4.5-25.6-19.3-58.6-19.3c-30.1,0-57.1,16.3-57.1,42.5c0,40.2,46.7,40.2,66.2,42.2c11.8,1.2,22.6,2,22.6,14.1
	c0,11.2-16.5,17.4-29.3,17.4c-20.8,0-33.3-7.1-45.5-18.5l-19.7,20.5C64,291,86.9,299,109.4,299c34.9,0,60.4-16,60.4-48.2
	C169.8,229.5,156,216.8,127.7,213.1z"/>
<path class="st0" d="M259.4,245.8c0,26.7-18.4,25.3-34.8,25.3c-16.6,0-27.2-4.6-27.2-16.6c0-11.2,8.6-14.9,26.5-14.9h35.5V245.8z
	 M228.7,154.7c-30.5,0-50.2,16.1-53.9,19.3l18.5,19.1c3.7-3,16.2-12,35.6-12c23.3,0,30.3,9.6,30.3,20.5v13.6l-41.6,0
	c-15.4,0-45.6,4-45.6,39c0,25.7,14.3,44.7,48.3,44.7c17.1,0,30-5.7,38.9-16.8v14h30.2v-92.4C289.4,171.5,270.3,154.7,228.7,154.7z"
	/>
<path class="st0" d="M384.1,224.6c0,10.4-0.2,18.2-1,22.1c-1.9,8.7-12,20.1-30.4,20.1c-4.6,0-28.1-2.6-30.8-22.5
	c-0.5-4-0.9-9.3-0.9-19.7c0-15.5,0.7-20.5,1.5-24.4c1.6-7.8,12.1-19.3,30.2-19.3c22.2,0,29.4,14.8,30.4,20.5
	C383.8,205.4,384.1,214.2,384.1,224.6z M384.1,157.6v15c-10.6-12-23.1-17.9-40.3-17.9c-29.4,0-44.5,16.1-49.6,33.3
	c-1.9,6.4-2.6,18.5-2.6,36.5c0,16.9,0.2,32.4,6.2,44.2c8.4,16.6,28.9,25.9,46,25.9c16.6,0,30.6-6.3,40.3-17.2v8.4
	c0,9.9-3.5,16.4-9.9,21.5c-6.5,5.1-14.6,8.3-25.9,8.3c-10.2,0-20.1-5.5-25.6-9.3l-20.8,20.4c13.5,10.7,29.6,18,47.1,18.1
	c18.5,0.1,33.3-5.3,46.3-15.3c12.5-9.6,20.3-27.6,20.3-46.7V157.6H384.1z"/>
</svg>
