<?xml version="1.0" encoding="utf-8"?>
<!-- Generator: Adobe Illustrator 22.0.1, SVG Export Plug-In . SVG Version: 6.00 Build 0)  -->
<svg version="1.0" id="katman_1" xmlns="http://www.w3.org/2000/svg" xmlns:xlink="http://www.w3.org/1999/xlink" x="0px" y="0px"
	 viewBox="0 0 900 675" style="enable-background:new 0 0 900 675;" xml:space="preserve">
<style type="text/css">
	.st0{fill:#1EB4EA;}
	.st1{fill:#FFFFFF;}
</style>
<path class="st0" d="M449.6,606.6c148.2,0,268.4-120.4,268.4-268.8c0-148.5-120.1-268.8-268.4-268.8S181.3,189.2,181.3,337.7
	C181.3,486.2,301.4,606.6,449.6,606.6"/>
<path class="st1" d="M309.7,337l45.8-46c3-3.4,2.6-8.6-0.8-11.6c-3.1-2.7-7.8-2.7-10.9,0.1l-45.8,45.8l-45.9-45.9
	c-3.2-3.2-8.4-3.2-11.6,0.1c-3.2,3.2-3.2,8.4,0.1,11.6l45.8,45.9l-45.8,45.9c-3.3,3.1-3.5,8.3-0.5,11.6c3.1,3.3,8.3,3.5,11.6,0.5
	c0.1-0.1,0.2-0.2,0.4-0.3l45.9-45.9l45.7,45.7c3.1,3.3,8.3,3.5,11.6,0.4c1.7-1.6,2.6-3.7,2.6-6c0-2.2-0.9-4.3-2.4-5.8L309.7,337
	 M582,337c0,8.2,6.7,14.9,14.9,14.9c8.3,0,14.9-6.7,14.9-14.9c0-8.3-6.7-14.9-14.9-14.9C588.7,322.1,582,328.8,582,337 M553.7,337
	c0-23.8,19.4-43.3,43.2-43.3c23.8,0,43.2,19.4,43.2,43.3c0,23.8-19.4,43.3-43.2,43.3C573,380.2,553.7,360.9,553.7,337 M536.7,337
	c0,33.2,27,60.3,60.2,60.3s60.2-27,60.2-60.3c0-33.2-27-60.3-60.2-60.3C563.7,276.8,536.7,303.8,536.7,337 M532.5,277.8h-2.5
	c-7.6,0-14.9,2.4-21,7.1c-0.9-3.8-4.2-6.4-8.1-6.5c-4.5,0-8.1,3.6-8.1,8.1c0,0,0,0,0,0l0,101.5c0.3,4.5,4.1,8,8.7,7.7
	c4.2-0.2,7.5-3.6,7.7-7.8v-62.4c0-20.8,1.9-29.2,19.7-31.4c1.7-0.2,3.4-0.2,3.5-0.2c4.9-0.2,8.3-3.5,8.3-8.1
	C540.6,281.5,537,277.8,532.5,277.8 M374.9,327.1c0-0.2,0-0.5,0-0.7c5.9-23.3,29.5-37.4,52.8-31.5c15.7,4,27.9,16.4,31.6,32.1
	L374.9,327.1L374.9,327.1z M476.1,325.5c-3.5-16.8-12.7-30.5-26.6-39.4c-20.7-13-47.1-12.3-67,1.8c-20.2,14.5-29.5,39.9-23.6,64
	c6.2,24,26.4,41.9,51.1,45c7.3,0.9,14.3,0.5,21.6-1.4c6.4-1.6,12.5-4.2,18-7.7c5.8-3.7,10.7-8.7,15.4-14.6c0.1-0.1,0.2-0.2,0.3-0.3
	c3.3-4.1,2.7-9.9-0.9-12.6c-3-2.3-8.1-3.3-12.1,1.9c-0.9,1.2-1.8,2.5-2.9,3.8c-3.2,3.5-7.1,6.9-11.9,9.6c-6,3.2-12.9,5.1-20.2,5.1
	c-23.9-0.3-36.6-17-41.2-28.9c-0.8-2.3-1.4-4.6-1.8-6.9l-0.1-1.3h85.7C471.5,343.3,477.9,335,476.1,325.5L476.1,325.5z"/>
</svg>
