<?xml version="1.0" encoding="UTF-8"?>
<svg xmlns="http://www.w3.org/2000/svg" xmlns:xlink="http://www.w3.org/1999/xlink" width="71px" height="20px" viewBox="0 0 71 20" version="1.1">
<g id="surface1">
<path style=" stroke:none;fill-rule:nonzero;fill:rgb(23.529412%,72.941178%,92.156863%);fill-opacity:1;" d="M 6.582031 0.25 C 6.671875 0.277344 6.757812 0.304688 6.84375 0.328125 C 7.128906 0.417969 7.414062 0.507812 7.695312 0.59375 C 7.890625 0.65625 8.089844 0.71875 8.289062 0.777344 C 8.804688 0.9375 9.320312 1.101562 9.839844 1.261719 C 10.367188 1.425781 10.898438 1.589844 11.425781 1.753906 C 12.460938 2.074219 13.5 2.398438 14.535156 2.722656 C 14.390625 3.15625 14.238281 3.242188 13.878906 3.515625 C 12.078125 4.925781 10.53125 6.941406 10.046875 9.230469 C 9.949219 10.308594 10.679688 11.265625 11.316406 12.085938 C 12.46875 13.457031 13.710938 14.480469 15.261719 15.351562 C 15.335938 15.402344 15.40625 15.453125 15.480469 15.503906 C 15.480469 15.582031 15.480469 15.660156 15.480469 15.738281 C 14.046875 16.476562 12.617188 17.207031 11.183594 17.9375 C 10.582031 18.246094 9.980469 18.554688 9.382812 18.867188 C 9.164062 18.980469 8.945312 19.09375 8.726562 19.203125 C 8.476562 19.332031 8.226562 19.460938 7.976562 19.589844 C 6.964844 20.105469 6.964844 20.105469 6.382812 20 C 3.988281 19 1.878906 16.589844 0.878906 14.234375 C 0.734375 13.871094 0.597656 13.507812 0.480469 13.136719 C 0.445312 13.039062 0.414062 12.941406 0.382812 12.839844 C 0.0976562 11.851562 0.0664062 10.90625 0.0703125 9.886719 C 0.0742188 9.609375 0.0703125 9.332031 0.0664062 9.054688 C 0.0507812 6.085938 1.28125 3.492188 3.28125 1.335938 C 4.390625 0.214844 4.988281 -0.257812 6.582031 0.25 Z M 6.582031 0.25 "/>
<path style=" stroke:none;fill-rule:nonzero;fill:rgb(16.078432%,37.254903%,57.254905%);fill-opacity:1;" d="M 9.101562 2.960938 C 9.082031 3.050781 9.0625 3.140625 9.042969 3.234375 C 8.804688 4.941406 8.859375 6.855469 9.464844 8.472656 C 9.832031 9.652344 9.71875 10.859375 9.683594 12.078125 C 9.648438 13.335938 9.679688 14.433594 10.0625 15.640625 C 10.164062 15.976562 10.164062 15.976562 10.164062 16.332031 C 9.535156 16.253906 8.945312 16.121094 8.335938 15.945312 C 8.242188 15.921875 8.148438 15.894531 8.050781 15.867188 C 7.324219 15.660156 6.609375 15.421875 5.890625 15.175781 C 5.40625 15.015625 4.921875 14.882812 4.429688 14.75 C 4.15625 14.671875 3.886719 14.597656 3.617188 14.523438 C 3.402344 14.460938 3.1875 14.402344 2.972656 14.34375 C 2.617188 14.246094 2.257812 14.140625 1.90625 14.039062 C 1.789062 14.007812 1.679688 13.976562 1.5625 13.945312 C 0.78125 13.710938 0.78125 13.710938 0.476562 13.234375 C 0.441406 13.085938 0.402344 12.9375 0.359375 12.78125 C 0.316406 12.632812 0.269531 12.484375 0.222656 12.332031 C 0.0546875 11.511719 0.09375 10.664062 0.101562 9.828125 C 0.101562 9.53125 0.101562 9.234375 0.101562 8.9375 C 0.101562 8.75 0.105469 8.5625 0.105469 8.375 C 0.105469 8.285156 0.105469 8.195312 0.105469 8.105469 C 0.109375 7.484375 0.109375 7.484375 0.242188 7.21875 C 0.46875 7.09375 0.46875 7.09375 0.765625 6.953125 C 0.875 6.898438 0.984375 6.847656 1.101562 6.796875 C 1.277344 6.710938 1.277344 6.710938 1.460938 6.625 C 1.710938 6.507812 1.960938 6.390625 2.210938 6.273438 C 2.335938 6.210938 2.460938 6.152344 2.59375 6.09375 C 4.105469 5.371094 5.589844 4.59375 7.070312 3.8125 C 7.882812 3.382812 7.882812 3.382812 8.273438 3.179688 C 8.359375 3.136719 8.445312 3.09375 8.53125 3.046875 C 8.746094 2.960938 8.746094 2.960938 9.101562 2.960938 Z M 9.101562 2.960938 "/>
<path style=" stroke:none;fill-rule:nonzero;fill:rgb(9.411765%,20.784314%,37.254903%);fill-opacity:1;" d="M 18.667969 1.773438 C 19.449219 1.773438 20.226562 1.773438 21.03125 1.773438 C 21.03125 3.257812 21.03125 4.742188 21.03125 6.273438 C 22.316406 6.273438 23.601562 6.273438 24.929688 6.273438 C 24.929688 4.789062 24.929688 3.304688 24.929688 1.773438 C 25.707031 1.773438 26.488281 1.773438 27.289062 1.773438 C 27.289062 5.5625 27.289062 9.351562 27.289062 13.253906 C 26.511719 13.253906 25.734375 13.253906 24.929688 13.253906 C 24.929688 11.691406 24.929688 10.128906 24.929688 8.519531 C 23.640625 8.519531 22.355469 8.519531 21.03125 8.519531 C 21.03125 10.082031 21.03125 11.644531 21.03125 13.253906 C 20.25 13.253906 19.472656 13.253906 18.667969 13.253906 C 18.667969 9.464844 18.667969 5.679688 18.667969 1.773438 Z M 18.667969 1.773438 "/>
<path style=" stroke:none;fill-rule:nonzero;fill:rgb(9.411765%,20.784314%,37.254903%);fill-opacity:1;" d="M 51.386719 1.773438 C 52.125 1.773438 52.867188 1.773438 53.632812 1.773438 C 53.640625 2.847656 53.648438 3.921875 53.65625 4.992188 C 53.65625 5.492188 53.660156 5.992188 53.664062 6.488281 C 53.671875 6.972656 53.671875 7.453125 53.675781 7.9375 C 53.675781 8.117188 53.679688 8.300781 53.679688 8.484375 C 53.699219 9.867188 53.5625 11.101562 52.65625 12.214844 C 51.804688 13.078125 50.757812 13.496094 49.554688 13.535156 C 48.339844 13.492188 47.34375 13.0625 46.453125 12.234375 C 45.613281 11.320312 45.3125 10.226562 45.328125 9.007812 C 45.429688 7.859375 45.832031 6.84375 46.664062 6.035156 C 47.46875 5.390625 48.179688 5.046875 49.222656 5.039062 C 49.339844 5.03125 49.339844 5.03125 49.457031 5.023438 C 50.285156 5.015625 50.546875 5.261719 51.386719 5.679688 C 51.386719 4.390625 51.386719 3.101562 51.386719 1.773438 Z M 48.257812 7.617188 C 47.75 8.191406 47.554688 8.691406 47.578125 9.460938 C 47.664062 10.179688 48.015625 10.664062 48.550781 11.125 C 49.054688 11.421875 49.515625 11.441406 50.085938 11.359375 C 50.714844 11.039062 51.164062 10.617188 51.386719 9.941406 C 51.46875 9.101562 51.4375 8.382812 50.914062 7.691406 C 50.121094 6.988281 49.082031 6.855469 48.257812 7.617188 Z M 48.257812 7.617188 "/>
<path style=" stroke:none;fill-rule:nonzero;fill:rgb(9.411765%,20.784314%,37.254903%);fill-opacity:1;" d="M 36.742188 1.773438 C 37.480469 1.773438 38.222656 1.773438 38.984375 1.773438 C 38.984375 3.0625 38.984375 4.351562 38.984375 5.679688 C 39.257812 5.523438 39.53125 5.367188 39.8125 5.207031 C 40.746094 4.867188 41.941406 4.972656 42.824219 5.382812 C 43.910156 6.007812 44.566406 6.949219 44.921875 8.144531 C 45.191406 9.398438 45.007812 10.597656 44.328125 11.6875 C 43.675781 12.597656 42.859375 13.179688 41.765625 13.441406 C 40.578125 13.636719 39.414062 13.492188 38.417969 12.78125 C 37.539062 12.027344 37.019531 11.304688 36.742188 10.179688 C 36.710938 9.757812 36.710938 9.757812 36.710938 9.3125 C 36.710938 9.230469 36.710938 9.148438 36.710938 9.0625 C 36.714844 8.796875 36.714844 8.527344 36.71875 8.257812 C 36.71875 8.070312 36.71875 7.882812 36.71875 7.695312 C 36.71875 7.207031 36.722656 6.714844 36.722656 6.226562 C 36.726562 5.726562 36.726562 5.222656 36.726562 4.722656 C 36.730469 3.738281 36.734375 2.757812 36.742188 1.773438 Z M 39.574219 7.574219 C 39.046875 8.234375 38.933594 8.773438 38.945312 9.601562 C 39.027344 10.300781 39.394531 10.722656 39.898438 11.183594 C 40.46875 11.445312 40.984375 11.488281 41.582031 11.277344 C 42.164062 10.980469 42.492188 10.554688 42.734375 9.957031 C 42.835938 9.101562 42.78125 8.527344 42.292969 7.8125 C 41.835938 7.3125 41.453125 7.117188 40.792969 7.078125 C 40.316406 7.117188 39.953125 7.285156 39.574219 7.574219 Z M 39.574219 7.574219 "/>
<path style=" stroke:none;fill-rule:nonzero;fill:rgb(28.627452%,73.725492%,61.176473%);fill-opacity:1;" d="M 9.691406 9.585938 C 10.046875 9.890625 10.214844 10.242188 10.421875 10.65625 C 11.523438 12.734375 13.242188 14.214844 15.261719 15.351562 C 15.335938 15.402344 15.40625 15.453125 15.480469 15.503906 C 15.480469 15.582031 15.480469 15.660156 15.480469 15.738281 C 14.046875 16.476562 12.617188 17.207031 11.183594 17.9375 C 10.582031 18.246094 9.980469 18.554688 9.382812 18.867188 C 9.164062 18.980469 8.945312 19.09375 8.726562 19.203125 C 8.476562 19.332031 8.226562 19.460938 7.976562 19.589844 C 6.964844 20.105469 6.964844 20.105469 6.382812 20 C 3.914062 18.96875 1.804688 16.464844 0.78125 14.042969 C 0.714844 13.84375 0.714844 13.84375 0.714844 13.609375 C 1.488281 13.730469 2.210938 13.941406 2.949219 14.199219 C 3.523438 14.394531 4.097656 14.5625 4.679688 14.71875 C 5.5 14.941406 6.308594 15.1875 7.117188 15.453125 C 8.125 15.777344 9.136719 16.074219 10.164062 16.332031 C 10.132812 16.21875 10.101562 16.101562 10.066406 15.984375 C 10 15.761719 10 15.761719 9.9375 15.53125 C 9.871094 15.3125 9.871094 15.3125 9.804688 15.082031 C 9.769531 14.949219 9.730469 14.8125 9.691406 14.675781 C 9.671875 14.605469 9.648438 14.539062 9.625 14.46875 C 9.550781 14.085938 9.558594 13.710938 9.558594 13.324219 C 9.558594 13.242188 9.558594 13.15625 9.558594 13.070312 C 9.558594 12.890625 9.558594 12.714844 9.558594 12.535156 C 9.558594 12.265625 9.558594 11.992188 9.558594 11.722656 C 9.558594 11.550781 9.558594 11.375 9.558594 11.203125 C 9.558594 11.125 9.558594 11.042969 9.558594 10.960938 C 9.558594 10.488281 9.601562 10.046875 9.691406 9.585938 Z M 9.691406 9.585938 "/>
<path style=" stroke:none;fill-rule:nonzero;fill:rgb(9.411765%,20.784314%,37.254903%);fill-opacity:1;" d="M 61.015625 6 C 61.917969 6.84375 62.316406 7.976562 62.398438 9.1875 C 62.375 10.390625 61.992188 11.40625 61.1875 12.308594 C 60.257812 13.175781 59.226562 13.535156 57.960938 13.515625 C 56.78125 13.421875 55.929688 12.890625 55.136719 12.035156 C 54.261719 10.960938 54.121094 9.746094 54.21875 8.402344 C 54.484375 7.203125 55.109375 6.292969 56.109375 5.59375 C 57.757812 4.566406 59.515625 4.847656 61.015625 6 Z M 57.054688 7.574219 C 56.5 8.3125 56.367188 8.914062 56.464844 9.820312 C 56.652344 10.390625 56.941406 10.863281 57.410156 11.242188 C 58.042969 11.453125 58.613281 11.464844 59.21875 11.167969 C 59.832031 10.625 60.085938 10.128906 60.164062 9.335938 C 60.101562 8.585938 59.886719 7.925781 59.351562 7.390625 C 58.53125 6.90625 57.765625 6.960938 57.054688 7.574219 Z M 57.054688 7.574219 "/>
<path style=" stroke:none;fill-rule:nonzero;fill:rgb(9.411765%,20.784314%,37.254903%);fill-opacity:1;" d="M 66.726562 4.949219 C 67.828125 4.886719 68.796875 5.226562 69.625 5.945312 C 70.128906 6.4375 70.851562 7.175781 70.886719 7.921875 C 70.882812 8.160156 70.878906 8.398438 70.875 8.640625 C 69.460938 8.765625 69.460938 8.765625 68.867188 8.640625 C 68.574219 8.390625 68.453125 8.179688 68.289062 7.835938 C 68.167969 7.539062 68.167969 7.539062 67.820312 7.328125 C 67.1875 7.140625 66.726562 7.117188 66.121094 7.398438 C 65.621094 7.851562 65.375 8.28125 65.277344 8.957031 C 65.25 9.6875 65.335938 10.304688 65.796875 10.886719 C 66.273438 11.246094 66.726562 11.304688 67.3125 11.285156 C 67.726562 11.21875 67.964844 11.050781 68.277344 10.769531 C 68.394531 10.535156 68.511719 10.300781 68.632812 10.058594 C 69.371094 10.058594 70.113281 10.058594 70.875 10.058594 C 70.875 10.859375 70.875 10.859375 70.609375 11.308594 C 70.558594 11.394531 70.511719 11.480469 70.460938 11.570312 C 69.875 12.453125 69.066406 13.128906 68.03125 13.425781 C 66.835938 13.59375 65.726562 13.539062 64.710938 12.820312 C 63.6875 11.972656 63.054688 11.097656 62.917969 9.746094 C 62.871094 8.335938 63.1875 7.203125 64.140625 6.15625 C 64.863281 5.449219 65.730469 5.050781 66.726562 4.949219 Z M 66.726562 4.949219 "/>
<path style=" stroke:none;fill-rule:nonzero;fill:rgb(9.411765%,20.784314%,37.254903%);fill-opacity:1;" d="M 28.472656 5.207031 C 29.171875 5.207031 29.875 5.207031 30.597656 5.207031 C 30.601562 5.546875 30.609375 5.890625 30.609375 6.238281 C 30.617188 6.570312 30.625 6.902344 30.628906 7.234375 C 30.632812 7.464844 30.636719 7.695312 30.640625 7.921875 C 30.644531 8.253906 30.648438 8.585938 30.65625 8.917969 C 30.65625 9.019531 30.65625 9.121094 30.65625 9.226562 C 30.675781 9.957031 30.765625 10.585938 31.304688 11.125 C 31.894531 11.242188 32.304688 11.3125 32.84375 11.007812 C 33.132812 10.769531 33.195312 10.660156 33.3125 10.296875 C 33.328125 10.125 33.335938 9.957031 33.339844 9.789062 C 33.34375 9.6875 33.34375 9.585938 33.347656 9.480469 C 33.347656 9.371094 33.351562 9.261719 33.351562 9.148438 C 33.355469 9.035156 33.359375 8.921875 33.359375 8.808594 C 33.367188 8.449219 33.375 8.089844 33.382812 7.730469 C 33.386719 7.484375 33.390625 7.242188 33.398438 7 C 33.410156 6.402344 33.421875 5.804688 33.433594 5.207031 C 34.171875 5.207031 34.914062 5.207031 35.675781 5.207031 C 35.6875 5.941406 35.695312 6.675781 35.703125 7.410156 C 35.703125 7.660156 35.710938 7.910156 35.710938 8.160156 C 35.765625 11.375 35.765625 11.375 34.621094 12.578125 C 33.746094 13.308594 32.773438 13.539062 31.65625 13.523438 C 30.609375 13.425781 29.757812 12.976562 29.0625 12.1875 C 28.632812 11.589844 28.457031 11.046875 28.460938 10.3125 C 28.460938 10.199219 28.460938 10.085938 28.460938 9.96875 C 28.460938 9.84375 28.460938 9.726562 28.460938 9.597656 C 28.460938 9.472656 28.460938 9.347656 28.460938 9.21875 C 28.460938 8.820312 28.460938 8.417969 28.464844 8.015625 C 28.464844 7.746094 28.464844 7.476562 28.46875 7.203125 C 28.46875 6.539062 28.46875 5.871094 28.472656 5.207031 Z M 28.472656 5.207031 "/>
<path style=" stroke:none;fill-rule:nonzero;fill:rgb(9.411765%,20.784314%,37.254903%);fill-opacity:1;" d="M 25.875 15.503906 C 26.148438 15.503906 26.417969 15.503906 26.699219 15.503906 C 26.855469 15.816406 27.011719 16.128906 27.171875 16.449219 C 27.328125 16.136719 27.484375 15.824219 27.644531 15.503906 C 27.957031 15.503906 28.269531 15.503906 28.589844 15.503906 C 28.589844 16.402344 28.589844 17.300781 28.589844 18.226562 C 28.316406 18.226562 28.046875 18.226562 27.765625 18.226562 C 27.726562 17.953125 27.6875 17.679688 27.644531 17.398438 C 27.605469 17.476562 27.566406 17.554688 27.527344 17.632812 C 27.246094 17.65625 27.246094 17.65625 26.9375 17.632812 C 26.859375 17.515625 26.78125 17.398438 26.699219 17.277344 C 26.660156 17.589844 26.625 17.902344 26.582031 18.226562 C 26.347656 18.226562 26.113281 18.226562 25.875 18.226562 C 25.875 17.328125 25.875 16.429688 25.875 15.503906 Z M 25.875 15.503906 "/>
<path style=" stroke:none;fill-rule:nonzero;fill:rgb(9.411765%,20.784314%,37.254903%);fill-opacity:1;" d="M 20.796875 15.503906 C 22.367188 15.453125 22.367188 15.453125 22.921875 15.859375 C 23.039062 15.976562 23.039062 15.976562 23.0625 16.316406 C 23.039062 16.6875 23.039062 16.6875 22.804688 17.039062 C 22.851562 17.28125 22.851562 17.28125 22.964844 17.523438 C 23.15625 17.96875 23.15625 17.96875 23.15625 18.226562 C 22.84375 18.226562 22.53125 18.226562 22.210938 18.226562 C 22.171875 17.953125 22.132812 17.679688 22.09375 17.398438 C 21.9375 17.398438 21.78125 17.398438 21.621094 17.398438 C 21.621094 17.671875 21.621094 17.945312 21.621094 18.226562 C 21.347656 18.226562 21.078125 18.226562 20.796875 18.226562 C 20.796875 17.328125 20.796875 16.429688 20.796875 15.503906 Z M 21.621094 16.210938 C 21.621094 16.367188 21.621094 16.523438 21.621094 16.6875 C 21.816406 16.648438 22.011719 16.609375 22.210938 16.570312 C 22.171875 16.453125 22.132812 16.335938 22.09375 16.210938 C 21.9375 16.210938 21.78125 16.210938 21.621094 16.210938 Z M 21.621094 16.210938 "/>
<path style=" stroke:none;fill-rule:nonzero;fill:rgb(9.411765%,20.784314%,37.254903%);fill-opacity:1;" d="M 34.257812 15.503906 C 35.832031 15.453125 35.832031 15.453125 36.386719 15.859375 C 36.503906 15.976562 36.503906 15.976562 36.527344 16.316406 C 36.503906 16.6875 36.503906 16.6875 36.265625 17.039062 C 36.316406 17.28125 36.316406 17.28125 36.429688 17.523438 C 36.621094 17.96875 36.621094 17.96875 36.621094 18.226562 C 36.351562 18.226562 36.078125 18.226562 35.796875 18.226562 C 35.625 17.910156 35.558594 17.765625 35.558594 17.398438 C 35.402344 17.398438 35.246094 17.398438 35.085938 17.398438 C 35.085938 17.671875 35.085938 17.945312 35.085938 18.226562 C 34.8125 18.226562 34.539062 18.226562 34.257812 18.226562 C 34.257812 17.328125 34.257812 16.429688 34.257812 15.503906 Z M 35.085938 16.210938 C 35.085938 16.367188 35.085938 16.523438 35.085938 16.6875 C 35.28125 16.648438 35.476562 16.609375 35.675781 16.570312 C 35.640625 16.453125 35.601562 16.335938 35.558594 16.210938 C 35.402344 16.210938 35.246094 16.210938 35.085938 16.210938 Z M 35.085938 16.210938 "/>
<path style=" stroke:none;fill-rule:nonzero;fill:rgb(9.411765%,20.784314%,37.254903%);fill-opacity:1;" d="M 38.601562 15.628906 C 39.015625 15.984375 39.195312 16.382812 39.242188 16.929688 C 39.214844 17.414062 39.125 17.609375 38.808594 17.988281 C 38.414062 18.265625 38.054688 18.304688 37.582031 18.277344 C 37.207031 18.199219 37 18.027344 36.742188 17.75 C 36.523438 17.316406 36.578125 16.808594 36.621094 16.332031 C 36.769531 15.976562 36.882812 15.8125 37.183594 15.585938 C 37.683594 15.429688 38.113281 15.4375 38.601562 15.628906 Z M 37.6875 16.210938 C 37.382812 16.667969 37.46875 16.875 37.566406 17.398438 C 37.761719 17.4375 37.957031 17.476562 38.15625 17.515625 C 38.335938 17.15625 38.296875 16.84375 38.273438 16.449219 C 38.195312 16.371094 38.121094 16.292969 38.039062 16.210938 C 37.921875 16.210938 37.804688 16.210938 37.6875 16.210938 Z M 37.6875 16.210938 "/>
<path style=" stroke:none;fill-rule:nonzero;fill:rgb(9.411765%,20.784314%,37.254903%);fill-opacity:1;" d="M 24.8125 15.503906 C 25.464844 15.867188 25.464844 15.867188 25.636719 16.210938 C 25.699219 16.828125 25.738281 17.34375 25.414062 17.882812 C 24.992188 18.257812 24.679688 18.265625 24.132812 18.257812 C 23.742188 18.210938 23.539062 18.035156 23.273438 17.75 C 23.042969 17.28125 23.089844 16.722656 23.15625 16.210938 C 23.644531 15.570312 24.015625 15.4375 24.8125 15.503906 Z M 24.21875 16.210938 C 23.9375 16.445312 23.9375 16.445312 23.953125 16.863281 C 23.9375 17.285156 23.9375 17.285156 24.21875 17.515625 C 24.375 17.515625 24.53125 17.515625 24.691406 17.515625 C 24.871094 17.15625 24.832031 16.84375 24.8125 16.449219 C 24.734375 16.371094 24.65625 16.292969 24.574219 16.210938 C 24.457031 16.210938 24.339844 16.210938 24.21875 16.210938 Z M 24.21875 16.210938 "/>
<path style=" stroke:none;fill-rule:nonzero;fill:rgb(9.411765%,20.784314%,37.254903%);fill-opacity:1;" d="M 29.535156 15.503906 C 29.808594 15.503906 30.082031 15.503906 30.363281 15.503906 C 30.441406 15.699219 30.515625 15.894531 30.597656 16.09375 C 30.679688 15.996094 30.757812 15.898438 30.84375 15.796875 C 31.1875 15.503906 31.1875 15.503906 31.640625 15.464844 C 31.765625 15.476562 31.886719 15.492188 32.015625 15.503906 C 31.832031 16.011719 31.582031 16.457031 31.304688 16.921875 C 31.359375 16.996094 31.410156 17.070312 31.460938 17.148438 C 31.527344 17.242188 31.59375 17.339844 31.660156 17.441406 C 31.726562 17.539062 31.792969 17.632812 31.859375 17.734375 C 32.015625 17.988281 32.015625 17.988281 32.015625 18.226562 C 31.703125 18.226562 31.390625 18.226562 31.070312 18.226562 C 31.039062 18.148438 31.003906 18.074219 30.96875 17.996094 C 30.855469 17.734375 30.855469 17.734375 30.597656 17.632812 C 30.480469 17.925781 30.480469 17.925781 30.363281 18.226562 C 30.050781 18.226562 29.738281 18.226562 29.417969 18.226562 C 29.601562 17.714844 29.851562 17.269531 30.125 16.804688 C 30.082031 16.742188 30.039062 16.675781 29.996094 16.609375 C 29.941406 16.523438 29.886719 16.441406 29.828125 16.351562 C 29.75 16.226562 29.75 16.226562 29.664062 16.101562 C 29.535156 15.859375 29.535156 15.859375 29.535156 15.503906 Z M 29.535156 15.503906 "/>
<path style=" stroke:none;fill-rule:nonzero;fill:rgb(9.411765%,20.784314%,37.254903%);fill-opacity:1;" d="M 32.132812 15.503906 C 32.757812 15.503906 33.382812 15.503906 34.023438 15.503906 C 34.023438 15.738281 34.023438 15.972656 34.023438 16.210938 C 33.632812 16.210938 33.242188 16.210938 32.84375 16.210938 C 32.84375 16.328125 32.84375 16.445312 32.84375 16.570312 C 33.195312 16.570312 33.542969 16.570312 33.90625 16.570312 C 33.90625 16.765625 33.90625 16.960938 33.90625 17.160156 C 33.554688 17.160156 33.203125 17.160156 32.84375 17.160156 C 32.84375 17.277344 32.84375 17.394531 32.84375 17.515625 C 33.234375 17.515625 33.621094 17.515625 34.023438 17.515625 C 34.023438 17.75 34.023438 17.984375 34.023438 18.226562 C 33.398438 18.226562 32.777344 18.226562 32.132812 18.226562 C 32.132812 17.328125 32.132812 16.429688 32.132812 15.503906 Z M 32.132812 15.503906 "/>
<path style=" stroke:none;fill-rule:nonzero;fill:rgb(9.411765%,20.784314%,37.254903%);fill-opacity:1;" d="M 18.667969 15.503906 C 19.292969 15.503906 19.914062 15.503906 20.558594 15.503906 C 20.558594 15.738281 20.558594 15.972656 20.558594 16.210938 C 20.207031 16.210938 19.859375 16.210938 19.496094 16.210938 C 19.496094 16.328125 19.496094 16.445312 19.496094 16.570312 C 19.808594 16.570312 20.117188 16.570312 20.441406 16.570312 C 20.441406 16.804688 20.441406 17.039062 20.441406 17.277344 C 20.128906 17.277344 19.816406 17.277344 19.496094 17.277344 C 19.496094 17.589844 19.496094 17.902344 19.496094 18.226562 C 19.222656 18.226562 18.949219 18.226562 18.667969 18.226562 C 18.667969 17.328125 18.667969 16.429688 18.667969 15.503906 Z M 18.667969 15.503906 "/>
</g>
</svg>
