<?xml version="1.0" encoding="UTF-8"?>
<svg version="1.1" xmlns="http://www.w3.org/2000/svg" width="193" height="193">
<path d="M0 0 C8.58 0 17.16 0 26 0 C27.12351876 4.49407503 26.45714057 7.47214029 25.41015625 11.83984375 C25.23085068 12.62090485 25.0515451 13.40196594 24.86680603 14.20669556 C24.47755412 15.89807553 24.08421045 17.58851788 23.68725586 19.27810669 C22.83742134 22.89559054 22.006868 26.51741165 21.17562866 30.13920593 C20.74625319 32.00995682 20.31592443 33.88048915 19.88467407 35.75080872 C18.00425168 43.92227241 16.22751711 52.11379202 14.47930908 60.31439209 C11.18027221 75.78789584 7.68863061 91.21081609 4.05664062 106.60961914 C1.76734928 116.36393801 -0.24463323 126.13542809 -2 136 C9.59879606 125.87773442 17.13652031 116.93240247 22 102 C22.37125 100.91332031 22.37125 100.91332031 22.75 99.8046875 C25.90691159 88.62395896 24.55846149 76.03858743 21.609375 65.03515625 C20.23612496 58.19531468 21.07774445 50.36020325 24 44 C24.66 43.67 25.32 43.34 26 43 C29.30010565 44.65005283 30.05198094 48.2406473 31.4375 51.5 C31.88706055 52.52480469 31.88706055 52.52480469 32.34570312 53.5703125 C33.26530447 55.70075554 34.13731009 57.84593935 35 60 C35.4323999 61.01102783 35.4323999 61.01102783 35.87353516 62.04248047 C38.55525044 68.9476972 38.53692981 75.78875149 38.5 83.125 C38.49500488 84.41656006 38.49000977 85.70812012 38.48486328 87.03881836 C38.3092437 96.64157609 37.19259814 104.27005427 33 113 C32.34837891 114.53333984 32.34837891 114.53333984 31.68359375 116.09765625 C23.65409487 133.82660678 8.95132279 148.33902185 -9 156 C-29.96406817 163.44291756 -49.98563348 164.04187136 -70.63671875 155.19140625 C-75.32961238 152.82556731 -79.67164433 149.97005787 -84 147 C-84.73476562 146.50371094 -85.46953125 146.00742188 -86.2265625 145.49609375 C-102.34573565 134.07575293 -113.00232648 114.11762818 -116.5703125 94.93359375 C-116.88865726 91.93380657 -116.99624321 89.01670356 -117 86 C-117.01160156 84.78957031 -117.02320312 83.57914062 -117.03515625 82.33203125 C-116.51962942 61.44288408 -107.6702029 43.71943177 -93 29 C-92.25234375 28.22914062 -91.5046875 27.45828125 -90.734375 26.6640625 C-81.66388335 17.86388351 -70.9343956 12.58946735 -58.9375 8.9375 C-58.2355249 8.72125977 -57.5335498 8.50501953 -56.81030273 8.28222656 C-52.53234536 7.08828241 -49.30995851 6.93091513 -45 8 C-45.97257897 17.56369316 -45.97257897 17.56369316 -48 21 C-50.984375 22.08203125 -50.984375 22.08203125 -54.75 22.8125 C-70.10963252 26.29649157 -83.11870506 35.53553426 -91.8125 48.6875 C-97.57363618 57.85968759 -101.71854367 68.06341101 -102 79 C-102.05800781 80.1446875 -102.05800781 80.1446875 -102.1171875 81.3125 C-102.41298654 91.56686679 -100.57344784 101.41666261 -97 111 C-94.89068017 108.89068017 -94.73053411 104.95042811 -94.07421875 102.07421875 C-93.88653427 101.26308624 -93.69884979 100.45195374 -93.50547791 99.61624146 C-92.89568919 96.97418583 -92.29157399 94.33086749 -91.6875 91.6875 C-91.27337099 89.89084695 -90.85914587 88.09421605 -90.44482422 86.29760742 C-88.17240153 76.39964724 -85.93226442 66.5004406 -84.22924805 56.48510742 C-83.5201084 52.55985674 -82.84226577 49.85071461 -80 47 C-77.36450195 46.54589844 -77.36450195 46.54589844 -74.23828125 46.609375 C-73.12001953 46.62226562 -72.00175781 46.63515625 -70.84960938 46.6484375 C-69.68236328 46.68195313 -68.51511719 46.71546875 -67.3125 46.75 C-66.13365234 46.76804688 -64.95480469 46.78609375 -63.74023438 46.8046875 C-60.82597013 46.85188206 -57.91352765 46.92111205 -55 47 C-55.50421751 56.04838143 -57.28829262 64.7130051 -59.2734375 73.52734375 C-59.60167574 75.00732935 -59.92935229 76.48743963 -60.25650024 77.96766663 C-60.93999794 81.05383994 -61.62784038 84.13899767 -62.31933594 87.22338867 C-63.19807208 91.14300502 -64.06952853 95.06419042 -64.93814659 98.98606014 C-65.77672079 102.7711792 -66.61857167 106.55556698 -67.4609375 110.33984375 C-67.61752209 111.04415968 -67.77410667 111.74847561 -67.93543625 112.47413445 C-69.83704704 121.01400468 -71.82712928 129.52453242 -74 138 C-73.21625 138.309375 -72.4325 138.61875 -71.625 138.9375 C-69 140 -69 140 -67 141 C-66.87181885 140.01870117 -66.7436377 139.03740234 -66.61157227 138.02636719 C-66.01023627 133.82996063 -65.13269037 129.71513299 -64.21484375 125.578125 C-64.03832275 124.77346298 -63.86180176 123.96880096 -63.67993164 123.13975525 C-63.10187731 120.50922128 -62.51985009 117.87958604 -61.9375 115.25 C-61.52997062 113.4014615 -61.12250071 111.55290989 -60.71508789 109.7043457 C-57.86083252 96.778451 -54.9420789 83.86789948 -51.96411133 70.9699707 C-50.19264103 63.28679965 -48.46587329 55.595907 -46.79296875 47.890625 C-46.42656544 46.21068207 -46.06011092 44.5307503 -45.69360352 42.85083008 C-44.99201992 39.63358912 -44.30004546 36.41447233 -43.61303711 33.1940918 C-43.2970766 31.74259642 -42.98077055 30.2911762 -42.6640625 28.83984375 C-42.39029785 27.56488037 -42.1165332 26.28991699 -41.83447266 24.97631836 C-41 22 -41 22 -39 20 C-35.01844664 19.54405054 -31.00464871 19.67596587 -27 19.6875 C-25.32164063 19.66333008 -25.32164063 19.66333008 -23.609375 19.63867188 C-22.00835937 19.63770508 -22.00835937 19.63770508 -20.375 19.63671875 C-19.39273438 19.63373779 -18.41046875 19.63075684 -17.3984375 19.62768555 C-16.60695313 19.75054932 -15.81546875 19.87341309 -15 20 C-13 23 -13 23 -13.35546875 25.390625 C-13.76732422 26.80601563 -13.76732422 26.80601563 -14.1875 28.25 C-15.42407226 32.77509849 -16.49130553 37.26752943 -17.375 41.875 C-18.5437755 47.83875193 -19.82802268 53.76445688 -21.1875 59.6875 C-23.4179623 69.4072941 -25.592731 79.13876809 -27.75 88.875 C-32.12118325 108.59357431 -36.55686103 128.29753319 -41 148 C-38.36 147.67 -35.72 147.34 -33 147 C-31.33199509 139.4377947 -29.66567492 131.87521883 -28 124.3125 C-27.75145264 123.18430847 -27.50290527 122.05611694 -27.24682617 120.89373779 C-24.67601407 109.22118071 -22.10895636 97.54796569 -19.59375 85.86328125 C-19.41239502 85.02112564 -19.23104004 84.17897003 -19.04418945 83.31129456 C-18.20987495 79.43386956 -17.37838716 75.55586418 -16.55078125 71.67700195 C-15.0634788 64.73170473 -13.47886507 57.82742699 -11.72363281 50.94482422 C-10.38418458 45.49393874 -9.27206152 39.99394193 -8.125 34.5 C-5.68004232 22.92154427 -2.95169073 11.4595052 0 0 Z " fill="#02B9DF" transform="translate(130,18)"/>
<path d="M0 0 C-0.97257897 9.56369316 -0.97257897 9.56369316 -3 13 C-5.984375 14.08203125 -5.984375 14.08203125 -9.75 14.8125 C-25.10963252 18.29649157 -38.11870506 27.53553426 -46.8125 40.6875 C-52.57363618 49.85968759 -56.71854367 60.06341101 -57 71 C-57.05800781 72.1446875 -57.05800781 72.1446875 -57.1171875 73.3125 C-57.41298654 83.56686679 -55.57344784 93.41666261 -52 103 C-49.89068017 100.89068017 -49.73053411 96.95042811 -49.07421875 94.07421875 C-48.88653427 93.26308624 -48.69884979 92.45195374 -48.50547791 91.61624146 C-47.89568919 88.97418583 -47.29157399 86.33086749 -46.6875 83.6875 C-46.27337099 81.89084695 -45.85914587 80.09421605 -45.44482422 78.29760742 C-43.17240153 68.39964724 -40.93226442 58.5004406 -39.22924805 48.48510742 C-38.5201084 44.55985674 -37.84226577 41.85071461 -35 39 C-32.36450195 38.54589844 -32.36450195 38.54589844 -29.23828125 38.609375 C-28.12001953 38.62226562 -27.00175781 38.63515625 -25.84960938 38.6484375 C-24.68236328 38.68195313 -23.51511719 38.71546875 -22.3125 38.75 C-21.13365234 38.76804688 -19.95480469 38.78609375 -18.74023438 38.8046875 C-15.82597013 38.85188206 -12.91352765 38.92111205 -10 39 C-10.50421751 48.04838143 -12.28829262 56.7130051 -14.2734375 65.52734375 C-14.60167574 67.00732935 -14.92935229 68.48743963 -15.25650024 69.96766663 C-15.93999794 73.05383994 -16.62784038 76.13899767 -17.31933594 79.22338867 C-18.19807208 83.14300502 -19.06952853 87.06419042 -19.93814659 90.98606014 C-20.77672079 94.7711792 -21.61857167 98.55556698 -22.4609375 102.33984375 C-22.61752209 103.04415968 -22.77410667 103.74847561 -22.93543625 104.47413445 C-24.83704704 113.01400468 -26.82712928 121.52453242 -29 130 C-27.35 130.66 -25.7 131.32 -24 132 C-24 132.66 -24 133.32 -24 134 C-23.01 134 -22.02 134 -21 134 C-20.34 133.34 -19.68 132.68 -19 132 C-19.33 133.65 -19.66 135.3 -20 137 C-20.99 137.33 -21.98 137.66 -23 138 C-23 138.66 -23 139.32 -23 140 C-22.34 140 -21.68 140 -21 140 C-21.495 142.97 -21.495 142.97 -22 146 C-21.01 146.33 -20.02 146.66 -19 147 C-27.38690642 146.86250973 -32.27953035 143.81882565 -39 139 C-40.10408203 138.24976563 -40.10408203 138.24976563 -41.23046875 137.484375 C-57.36358008 126.12566605 -68.00960334 106.07850256 -71.5703125 86.93359375 C-71.88865726 83.93380657 -71.99624321 81.01670356 -72 78 C-72.01160156 76.78957031 -72.02320312 75.57914062 -72.03515625 74.33203125 C-71.51962942 53.44288408 -62.6702029 35.71943177 -48 21 C-47.25234375 20.22914062 -46.5046875 19.45828125 -45.734375 18.6640625 C-36.66388335 9.86388351 -25.9343956 4.58946735 -13.9375 0.9375 C-13.2355249 0.72125977 -12.5335498 0.50501953 -11.81030273 0.28222656 C-7.53234536 -0.91171759 -4.30995851 -1.06908487 0 0 Z " fill="#03E7A8" transform="translate(85,26)"/>
<path d="M0 0 C1.11890625 0.00322266 2.2378125 0.00644531 3.390625 0.00976562 C5.06898437 -0.0144043 5.06898437 -0.0144043 6.78125 -0.0390625 C8.38226563 -0.0400293 8.38226563 -0.0400293 10.015625 -0.04101562 C10.99789062 -0.04399658 11.98015625 -0.04697754 12.9921875 -0.05004883 C13.78367188 0.07281494 14.57515625 0.19567871 15.390625 0.32226562 C17.390625 3.32226562 17.390625 3.32226562 17.03515625 5.71289062 C16.76058594 6.65648437 16.48601562 7.60007812 16.203125 8.57226562 C14.96655274 13.09736411 13.89931947 17.58979505 13.015625 22.19726562 C11.84684861 28.16102209 10.56250871 34.08669716 9.203125 40.00976562 C6.87351808 50.16809476 4.590259 60.33623205 2.328125 70.50976562 C2.06764877 71.68102493 2.06764877 71.68102493 1.8019104 72.87594604 C-0.74590036 84.34206378 -3.24602502 95.81648285 -5.609375 107.32226562 C-7.589375 107.81726563 -7.589375 107.81726563 -9.609375 108.32226562 C-9.733125 109.31226563 -9.856875 110.30226563 -9.984375 111.32226562 C-10.56132227 115.41106586 -11.55901154 119.33088449 -12.609375 123.32226562 C-13.269375 123.32226562 -13.929375 123.32226562 -14.609375 123.32226562 C-14.3 124.39476562 -13.990625 125.46726562 -13.671875 126.57226562 C-12.94125404 129.15092785 -12.23454596 131.71738664 -11.609375 134.32226562 C-8.969375 134.32226562 -6.329375 134.32226562 -3.609375 134.32226562 C-3.279375 135.31226563 -2.949375 136.30226562 -2.609375 137.32226562 C6.300625 136.33226562 6.300625 136.33226562 15.390625 135.32226562 C15.390625 136.31226563 15.390625 137.30226562 15.390625 138.32226562 C-4.22770203 143.30469789 -19.4681941 142.87989242 -38.609375 136.32226562 C-37.619375 135.33226562 -37.619375 135.33226562 -36.609375 134.32226562 C-36.21173237 132.33405249 -35.87162151 130.33282223 -35.609375 128.32226562 C-36.269375 128.32226562 -36.929375 128.32226562 -37.609375 128.32226562 C-37.609375 127.66226563 -37.609375 127.00226563 -37.609375 126.32226562 C-36.124375 125.33226562 -36.124375 125.33226562 -34.609375 124.32226562 C-35.83817716 123.02809142 -35.83817716 123.02809142 -38.609375 121.32226562 C-37.949375 121.32226562 -37.289375 121.32226562 -36.609375 121.32226562 C-36.48119385 120.3409668 -36.3530127 119.35966797 -36.22094727 118.34863281 C-35.61961127 114.15222626 -34.74206537 110.03739862 -33.82421875 105.90039062 C-33.64769775 105.09572861 -33.47117676 104.29106659 -33.28930664 103.46202087 C-32.71125231 100.8314869 -32.12922509 98.20185166 -31.546875 95.57226562 C-31.13934562 93.72372713 -30.73187571 91.87517552 -30.32446289 90.02661133 C-27.47020752 77.10071662 -24.5514539 64.1901651 -21.57348633 51.29223633 C-19.80201603 43.60906528 -18.07524829 35.91817262 -16.40234375 28.21289062 C-16.03594044 26.53294769 -15.66948592 24.85301593 -15.30297852 23.1730957 C-14.60139492 19.95585474 -13.90942046 16.73673796 -13.22241211 13.51635742 C-12.9064516 12.06486204 -12.59014555 10.61344183 -12.2734375 9.16210938 C-11.99967285 7.887146 -11.7259082 6.61218262 -11.44384766 5.29858398 C-9.65997921 -1.06394974 -5.72701377 0.03804176 0 0 Z " fill="#02D0C4" transform="translate(99.609375,37.677734375)"/>
<path d="M0 0 C-0.97257897 9.56369316 -0.97257897 9.56369316 -3 13 C-5.984375 14.08203125 -5.984375 14.08203125 -9.75 14.8125 C-25.10963252 18.29649157 -38.11870506 27.53553426 -46.8125 40.6875 C-52.57363618 49.85968759 -56.71854367 60.06341101 -57 71 C-57.05800781 72.1446875 -57.05800781 72.1446875 -57.1171875 73.3125 C-57.41298654 83.56686679 -55.57344784 93.41666261 -52 103 C-49.89068017 100.89068017 -49.73053411 96.95042811 -49.07421875 94.07421875 C-48.88653427 93.26308624 -48.69884979 92.45195374 -48.50547791 91.61624146 C-47.89568919 88.97418583 -47.29157399 86.33086749 -46.6875 83.6875 C-46.27337099 81.89084695 -45.85914587 80.09421605 -45.44482422 78.29760742 C-43.17240153 68.39964724 -40.93226442 58.5004406 -39.22924805 48.48510742 C-38.5201084 44.55985674 -37.84226577 41.85071461 -35 39 C-32.36450195 38.54589844 -32.36450195 38.54589844 -29.23828125 38.609375 C-28.12001953 38.62226562 -27.00175781 38.63515625 -25.84960938 38.6484375 C-24.68236328 38.68195313 -23.51511719 38.71546875 -22.3125 38.75 C-21.13365234 38.76804688 -19.95480469 38.78609375 -18.74023438 38.8046875 C-15.82597013 38.85188206 -12.91352765 38.92111205 -10 39 C-10.50681097 48.1496253 -12.31952125 56.92630351 -14.30859375 65.84375 C-14.63908582 67.34532836 -14.96916153 68.84699842 -15.29884338 70.34875488 C-15.98626702 73.47274942 -16.67848789 76.59562968 -17.37426758 79.71777344 C-18.2654094 83.71828762 -19.14457705 87.72132378 -20.02027798 91.72524261 C-20.69764304 94.81631176 -21.38110725 97.90600722 -22.06645393 100.99531555 C-22.39323938 102.47169686 -22.71815916 103.94849242 -23.04116631 105.42570496 C-23.49189021 107.48249962 -23.95076068 109.53730819 -24.41186523 111.59179688 C-24.80038918 113.34405579 -24.80038918 113.34405579 -25.19676208 115.13171387 C-26 118 -26 118 -28 121 C-27.15549218 103.99335984 -23.63687628 86.67558349 -18.9375 70.296875 C-18.12985573 67.45665931 -17.53613427 64.72196766 -17.0625 61.8125 C-15.8363761 54.77688431 -14.25994387 47.7798316 -12 41 C-19.59 41.33 -27.18 41.66 -35 42 C-35.33 44.97 -35.66 47.94 -36 51 C-36.41655917 52.77125159 -36.87923277 54.53304272 -37.41015625 56.2734375 C-39.1465185 62.32806632 -40.30544641 68.43311488 -41.4375 74.625 C-43.34628541 84.82705351 -45.48948537 94.92989104 -48 105 C-50.475 105.495 -50.475 105.495 -53 106 C-53.33 104.35 -53.66 102.7 -54 101 C-54.99 101 -55.98 101 -57 101 C-62.76131175 86.62244076 -62.449928 70.13423263 -60 55 C-59.96296763 52.66696056 -59.95239087 50.33284758 -60 48 C-60.66 47.67 -61.32 47.34 -62 47 C-62.33 46.67 -62.66 46.34 -63 46 C-63.495 48.475 -63.495 48.475 -64 51 C-64.66 51 -65.32 51 -66 51 C-67.1302932 60.40551762 -67.11666086 69.73387522 -67.0625 79.1875 C-67.05747197 80.72721208 -67.05291138 82.26692575 -67.04882812 83.80664062 C-67.03793264 87.53779428 -67.02074082 91.26888654 -67 95 C-66.34 95 -65.68 95 -65 95 C-64.75765625 96.09699219 -64.5153125 97.19398437 -64.265625 98.32421875 C-63.9277847 99.77880891 -63.58920375 101.23322719 -63.25 102.6875 C-63.09273437 103.40873047 -62.93546875 104.12996094 -62.7734375 104.87304688 C-61.50145735 110.23004022 -59.59285392 113.79127259 -55.3125 117.4375 C-53.37718876 119.74144195 -53.32522743 122.07295311 -53 125 C-63.63454402 115.92935951 -70.05077719 97.97474372 -71.80859375 84.30078125 C-73.09692472 62.08364509 -67.37703772 42.7135425 -52.625 25.75 C-51.10170396 24.14898478 -49.56001921 22.56525417 -48 21 C-47.25234375 20.22914062 -46.5046875 19.45828125 -45.734375 18.6640625 C-36.66388335 9.86388351 -25.9343956 4.58946735 -13.9375 0.9375 C-13.2355249 0.72125977 -12.5335498 0.50501953 -11.81030273 0.28222656 C-7.53234536 -0.91171759 -4.30995851 -1.06908487 0 0 Z " fill="#0BF19D" transform="translate(85,26)"/>
<path d="M0 0 C3 1 3 1 4.71875 4.28125 C5.32358721 5.68276706 5.91688036 7.08930882 6.5 8.5 C6.79519531 9.18320313 7.09039062 9.86640625 7.39453125 10.5703125 C8.2999687 12.7002843 9.15334181 14.84605894 10 17 C10.28681641 17.67401855 10.57363281 18.34803711 10.86914062 19.04248047 C13.55314474 25.94946719 13.53694386 32.78596033 13.5 40.125 C13.49500488 41.41656006 13.49000977 42.70812012 13.48486328 44.03881836 C13.30927342 53.63995069 12.19343095 61.2728335 8 70 C7.50757813 71.13824219 7.01515625 72.27648437 6.5078125 73.44921875 C3.94418343 79.0613083 2.39847644 81.91008256 -3 85 C-3.33 85.99 -3.66 86.98 -4 88 C-5.66666667 89.33333333 -7.33333333 90.66666667 -9 92 C-9.33 92.99 -9.66 93.98 -10 95 C-10.99 95 -11.98 95 -13 95 C-13.33 95.99 -13.66 96.98 -14 98 C-16.0625 98.6875 -16.0625 98.6875 -18 99 C-18.33 97.68 -18.66 96.36 -19 95 C-19.66 95 -20.32 95 -21 95 C-21 93.68 -21 92.36 -21 91 C-20.34 91 -19.68 91 -19 91 C-19 90.34 -19 89.68 -19 89 C-18.21625 88.443125 -17.4325 87.88625 -16.625 87.3125 C-13.82449937 84.8453923 -13.43979718 83.56744737 -12.65234375 80.03515625 C-11.83915789 77.49821114 -10.56608553 75.55139348 -9.125 73.3125 C-2.99286918 63.4920949 -0.79986615 52.87265978 -0.75 41.4375 C-0.74605225 40.6439209 -0.74210449 39.8503418 -0.73803711 39.03271484 C-0.79639899 33.07017654 -1.84620473 27.79759224 -3.390625 22.03515625 C-4.78559612 15.08712704 -3.81076704 7.49989878 -1 1 C-0.67 0.67 -0.34 0.34 0 0 Z " fill="#04A2F7" transform="translate(155,61)"/>
<path d="M0 0 C0.66 0.33 1.32 0.66 2 1 C0.77748473 12.95169537 -1.53626783 24.34302852 -4.50439453 35.97705078 C-4.9877014 37.94979992 -5.41987175 39.92531406 -5.83203125 41.9140625 C-5.98889404 42.66703613 -6.14575684 43.42000977 -6.30737305 44.19580078 C-6.47406494 44.99743652 -6.64075684 45.79907227 -6.8125 46.625 C-8.24657549 53.46361868 -9.69510156 60.29885117 -11.1875 67.125 C-11.35419189 67.90053223 -11.52088379 68.67606445 -11.69262695 69.47509766 C-12.884258 74.884258 -12.884258 74.884258 -14 76 C-16.82117011 85.52144913 -17 96.12801183 -17 106 C-17.74715155 107.72169706 -18.49576429 109.44283529 -19.26171875 111.15625 C-20.29756572 113.74312709 -20.74268588 116.23387322 -21 119 C-20.505 119.99 -20.505 119.99 -20 121 C-20.99 121.495 -20.99 121.495 -22 122 C-21.95875 122.7425 -21.9175 123.485 -21.875 124.25 C-22 127 -22 127 -23.03125 128.89453125 C-24.18497696 131.40202654 -23.97183717 132.73310748 -23.625 135.4375 C-23.5635351 138.29798179 -23.5943429 139.51821422 -25.45703125 141.73046875 C-30.00014042 144.92946278 -33.68667001 145.44436655 -39.1171875 144.6875 C-41 144 -41 144 -43 141 C-43.125 138.3125 -43.125 138.3125 -43 136 C-42.34 136 -41.68 136 -41 136 C-40.7834375 134.2675 -40.7834375 134.2675 -40.5625 132.5 C-40.04166667 128.33333333 -39.52083333 124.16666667 -39 120 C-37.68 120 -36.36 120 -35 120 C-35.60299164 127.23589973 -37.1150587 133.99370876 -39 141 C-36.36 140.67 -33.72 140.34 -31 140 C-29.33199509 132.4377947 -27.66567492 124.87521883 -26 117.3125 C-25.62717896 115.62021271 -25.62717896 115.62021271 -25.24682617 113.89373779 C-22.67601407 102.22118071 -20.10895636 90.54796569 -17.59375 78.86328125 C-17.32171753 77.60004784 -17.32171753 77.60004784 -17.04418945 76.31129456 C-16.20987495 72.43386956 -15.37838716 68.55586418 -14.55078125 64.67700195 C-13.06575015 57.74219445 -11.48476853 50.84785258 -9.73242188 43.97558594 C-8.35217377 38.36809798 -7.18893846 32.71305387 -6 27.0625 C-4.09090217 18.01914336 -2.10967895 8.99886549 0 0 Z " fill="#11C2D0" transform="translate(128,25)"/>
<path d="M0 0 C1.54747925 0.0314209 1.54747925 0.0314209 3.1262207 0.06347656 C4.24448242 0.07636719 5.36274414 0.08925781 6.51489258 0.10253906 C7.68213867 0.13605469 8.84938477 0.16957031 10.05200195 0.20410156 C11.23084961 0.22214844 12.40969727 0.24019531 13.62426758 0.25878906 C16.53853183 0.30598363 19.4509743 0.37521362 22.36450195 0.45410156 C21.85769099 9.60372686 20.04498071 18.38040507 18.0559082 27.29785156 C17.72541614 28.79942993 17.39534042 30.30109998 17.06565857 31.80285645 C16.37823493 34.92685099 15.68601406 38.04973124 14.99023438 41.171875 C14.09909255 45.17238919 13.21992491 49.17542535 12.34422398 53.17934418 C11.66685891 56.27041333 10.9833947 59.36010878 10.29804802 62.44941711 C9.97126257 63.92579842 9.6463428 65.40259398 9.32333565 66.87980652 C8.87261174 68.93660119 8.41374127 70.99140975 7.95263672 73.04589844 C7.56411278 74.79815735 7.56411278 74.79815735 7.16773987 76.58581543 C6.36450195 79.45410156 6.36450195 79.45410156 4.36450195 82.45410156 C5.20900977 65.44746141 8.72762568 48.12968505 13.42700195 31.75097656 C14.23464622 28.91076087 14.82836768 26.17606922 15.30200195 23.26660156 C16.52812585 16.23098587 18.10455809 9.23393316 20.36450195 2.45410156 C12.77450195 2.78410156 5.18450195 3.11410156 -2.63549805 3.45410156 C-2.96549805 6.42410156 -3.29549805 9.39410156 -3.63549805 12.45410156 C-4.05205722 14.22535316 -4.51473081 15.98714428 -5.0456543 17.72753906 C-6.78201654 23.78216788 -7.94094446 29.88721644 -9.07299805 36.07910156 C-10.98178346 46.28115507 -13.12498342 56.3839926 -15.63549805 66.45410156 C-18.11049805 66.94910156 -18.11049805 66.94910156 -20.63549805 67.45410156 C-21.13049805 64.97910156 -21.13049805 64.97910156 -21.63549805 62.45410156 C-22.29549805 62.45410156 -22.95549805 62.45410156 -23.63549805 62.45410156 C-25.14284913 57.73106817 -25.97267628 53.31327397 -26.3894043 48.37207031 C-26.53879845 46.3727118 -26.53879845 46.3727118 -27.63549805 44.45410156 C-27.73052631 43.06471661 -27.76622644 41.67094968 -27.76831055 40.27832031 C-27.76959961 39.45009766 -27.77088867 38.621875 -27.7722168 37.76855469 C-27.76834961 36.90166016 -27.76448242 36.03476563 -27.76049805 35.14160156 C-27.76436523 34.28630859 -27.76823242 33.43101563 -27.7722168 32.54980469 C-27.75899725 24.01658955 -27.75899725 24.01658955 -26.63549805 20.45410156 C-25.97549805 20.12410156 -25.31549805 19.79410156 -24.63549805 19.45410156 C-23.97994686 16.92676921 -23.97994686 16.92676921 -23.63549805 14.45410156 C-22.97549805 14.45410156 -22.31549805 14.45410156 -21.63549805 14.45410156 C-21.76827148 14.999375 -21.90104492 15.54464844 -22.0378418 16.10644531 C-25.8818173 32.5205013 -25.57455401 48.52663331 -19.63549805 64.45410156 C-17.52617821 62.34478173 -17.36603216 58.40452967 -16.7097168 55.52832031 C-16.52203232 54.71718781 -16.33434784 53.9060553 -16.14097595 53.07034302 C-15.53118723 50.4282874 -14.92707204 47.78496906 -14.32299805 45.14160156 C-13.90886904 43.34494851 -13.49464392 41.54831762 -13.08032227 39.75170898 C-10.80789958 29.85374881 -8.56776247 19.95454216 -6.86474609 9.93920898 C-5.23198123 0.90148079 -5.23198123 0.90148079 0 0 Z " fill="#48D8C1" transform="translate(52.635498046875,64.5458984375)"/>
<path d="M0 0 C0.99 0.33 1.98 0.66 3 1 C3.1970602 2.56132309 3.38220155 4.12415264 3.5625 5.6875 C3.66691406 6.55761719 3.77132813 7.42773438 3.87890625 8.32421875 C4 11 4 11 3.52026367 13.31689453 C2.5687851 18.22386286 2.7732475 23.20381707 2.75 28.1875 C2.729375 29.27353516 2.70875 30.35957031 2.6875 31.47851562 C2.65747415 37.72764516 3.22750351 42.97763444 5.35253906 48.87231445 C6 51 6 51 6 55 C6.66 55 7.32 55 8 55 C8.28875 55.94875 8.5775 56.8975 8.875 57.875 C9.76825109 61.05211578 9.76825109 61.05211578 12 63 C11.34 63 10.68 63 10 63 C10 63.66 10 64.32 10 65 C9.01 65 8.02 65 7 65 C6.67 66.65 6.34 68.3 6 70 C0.95943769 65.88796233 -0.07261899 62.32991456 -1 56 C-1.11085938 55.29488281 -1.22171875 54.58976562 -1.3359375 53.86328125 C-1.57880321 52.24527048 -1.79281295 50.62296523 -2 49 C-2.66 49 -3.32 49 -4 49 C-4.85101783 41.83832748 -5.1826775 34.77213013 -5.1875 27.5625 C-5.19974609 26.60279297 -5.21199219 25.64308594 -5.22460938 24.65429688 C-5.23798379 18.03396188 -4.90556821 11.38235339 -3 5 C-2.34 4.67 -1.68 4.34 -1 4 C-0.34786708 1.97536745 -0.34786708 1.97536745 0 0 Z " fill="#06F893" transform="translate(22,72)"/>
<path d="M0 0 C3 1 3 1 4.71875 4.28125 C5.32358721 5.68276706 5.91688036 7.08930882 6.5 8.5 C6.79519531 9.18320313 7.09039062 9.86640625 7.39453125 10.5703125 C8.2999687 12.7002843 9.15334181 14.84605894 10 17 C10.28681641 17.67401855 10.57363281 18.34803711 10.86914062 19.04248047 C13.55314474 25.94946719 13.53694386 32.78596033 13.5 40.125 C13.49500488 41.41656006 13.49000977 42.70812012 13.48486328 44.03881836 C13.30946589 53.62942673 12.20863142 61.28758639 8 70 C7.47277344 71.16144531 6.94554687 72.32289063 6.40234375 73.51953125 C2.50352784 81.74823608 2.50352784 81.74823608 0 83 C0 81.68 0 80.36 0 79 C0.66 79 1.32 79 2 79 C2 77.68 2 76.36 2 75 C2.66 75 3.32 75 4 75 C4.33 73.02 4.66 71.04 5 69 C5.66 69 6.32 69 7 69 C7.144375 67.948125 7.28875 66.89625 7.4375 65.8125 C7.74362872 63.73762757 8.07370435 61.66350863 8.52246094 59.61474609 C10.89481748 46.62500247 9.88835663 31.61929726 6.65625 18.85546875 C6.02851575 16.12407744 5.87625362 13.78944974 6 11 C5.01 10.67 4.02 10.34 3 10 C2.67 8.35 2.34 6.7 2 5 C1.34 5 0.68 5 0 5 C-0.49659537 15.27068334 -0.49659537 15.27068334 1.5 25.25 C6.20601647 40.38130654 2.9586845 57.1792794 -4 71 C-4.70758326 74.2366963 -4.70758326 74.2366963 -5 77 C-6.65 77 -8.3 77 -10 77 C-10.66 78.32 -11.32 79.64 -12 81 C-12 77.44743617 -11.18404211 76.47792486 -9.25 73.5625 C-3.08978348 63.61586198 -0.80044696 53.00584849 -0.75 41.4375 C-0.74605225 40.6439209 -0.74210449 39.8503418 -0.73803711 39.03271484 C-0.79639899 33.07017654 -1.84620473 27.79759224 -3.390625 22.03515625 C-4.78559612 15.08712704 -3.81076704 7.49989878 -1 1 C-0.67 0.67 -0.34 0.34 0 0 Z " fill="#3CAAEB" transform="translate(155,61)"/>
<path d="M0 0 C-0.97257897 9.56369316 -0.97257897 9.56369316 -3 13 C-5.984375 14.08203125 -5.984375 14.08203125 -9.75 14.8125 C-21.26093094 17.39155077 -30.92121953 23.55652781 -40 31 C-38.7978674 26.32503988 -36.45867887 24.53616659 -32.65625 21.91796875 C-31 21 -31 21 -29 21 C-29 20.34 -29 19.68 -29 19 C-28.34 18.67 -27.68 18.34 -27 18 C-27.33 16.68 -27.66 15.36 -28 14 C-23.25 12.875 -23.25 12.875 -21 14 C-21.78130071 11.50447516 -21.78130071 11.50447516 -23 9 C-23.99 8.67 -24.98 8.34 -26 8 C-26 8.66 -26 9.32 -26 10 C-27.2375 10.433125 -28.475 10.86625 -29.75 11.3125 C-32.94090502 12.49640469 -35.33992498 13.85147787 -38 16 C-38.66 16 -39.32 16 -40 16 C-40 16.66 -40 17.32 -40 18 C-41.75 19.5078125 -41.75 19.5078125 -44 21.125 C-44.7425 21.66382812 -45.485 22.20265625 -46.25 22.7578125 C-46.8275 23.16773437 -47.405 23.57765625 -48 24 C-48.66 23.67 -49.32 23.34 -50 23 C-38.75175586 10.74611814 -17.39940191 -4.01524659 0 0 Z " fill="#0ADAB7" transform="translate(85,26)"/>
<path d="M0 0 C8.58 0 17.16 0 26 0 C27.1451226 4.5804904 26.40563372 7.69790254 25.33984375 12.15625 C25.15466187 12.96368652 24.96947998 13.77112305 24.77868652 14.60302734 C24.17298037 17.23727649 23.55514119 19.86852635 22.9375 22.5 C22.31072379 25.21493693 21.68724277 27.93061688 21.0639801 30.6463623 C20.64575021 32.46796503 20.22650698 34.28933539 19.80625916 36.11047363 C17.93662028 44.22368098 16.16626096 52.35575907 14.4375 60.5 C14.06129517 62.26827148 14.06129517 62.26827148 13.67749023 64.07226562 C13.11644769 66.71445239 12.55707562 69.35697456 12 72 C11.67 72 11.34 72 11 72 C10.97307516 69.70839681 10.95363876 67.41670454 10.9375 65.125 C10.92589844 63.84882812 10.91429687 62.57265625 10.90234375 61.2578125 C11 58 11 58 12 56 C12.154636 54.27323132 12.2747343 52.54327704 12.375 50.8125 C12.76576492 45.96575452 14.0203344 42.45424761 16 38 C17.22728523 32.37698695 17.22728523 32.37698695 16 27 C15.34 26.67 14.68 26.34 14 26 C14.33 25.34 14.66 24.68 15 24 C15.99 24 16.98 24 18 24 C18.66 20.04 19.32 16.08 20 12 C18.02 11.34 16.04 10.68 14 10 C14.33 8.68 14.66 7.36 15 6 C11.79291507 5.27581953 8.56894512 4.75369579 5.3125 4.3125 C4.54550781 4.20550781 3.77851563 4.09851563 2.98828125 3.98828125 C0.76292893 3.76845311 0.76292893 3.76845311 -1 6 C-0.67 4.02 -0.34 2.04 0 0 Z " fill="#07AAEC" transform="translate(130,18)"/>
<path d="M0 0 C1.38030399 4.4818288 0.30406904 8.232933 -0.73046875 12.69140625 C-0.92216141 13.5507225 -1.11385406 14.41003876 -1.31135559 15.2953949 C-1.92832516 18.05306688 -2.55751104 20.80777616 -3.1875 23.5625 C-3.79456336 26.25362816 -4.39907686 28.94532067 -5.00344849 31.63705444 C-5.4041013 33.42020012 -5.80585137 35.20309961 -6.20870972 36.98574829 C-8.23452771 45.97059291 -10.12931611 54.9817636 -12 64 C-11.09878418 63.165896 -10.19756836 62.33179199 -9.26904297 61.47241211 C-8.73196716 60.97546844 -8.19489136 60.47852478 -7.64154053 59.96652222 C-6.52058496 58.92873491 -5.40083253 57.8896477 -4.28173828 56.84985352 C-0.22222222 53.11111111 -0.22222222 53.11111111 2 52 C1.62403791 54.78211944 1.32681541 56.5879284 -0.4375 58.8125 C-2 60 -2 60 -4 60 C-4 60.66 -4 61.32 -4 62 C-4.66 62 -5.32 62 -6 62 C-6 63.32 -6 64.64 -6 66 C-5.34 66 -4.68 66 -4 66 C-3.34 66.99 -2.68 67.98 -2 69 C-0.515 68.505 -0.515 68.505 1 68 C1.33 67.34 1.66 66.68 2 66 C2.99 66 3.98 66 5 66 C5.103125 65.401875 5.20625 64.80375 5.3125 64.1875 C6.09824033 61.68741714 6.96918853 60.62464918 9 59 C9.66 59 10.32 59 11 59 C11.33 57.68 11.66 56.36 12 55 C12.99 55.33 13.98 55.66 15 56 C5.93558 67.97398691 -7.07217075 81.49174791 -22.41796875 84.71875 C-23.27003906 84.8115625 -24.12210937 84.904375 -25 85 C-25 84.01 -25 83.02 -25 82 C-23.10435574 81.20788071 -21.20847629 80.41632424 -19.3125 79.625 C-18.25675781 79.18414062 -17.20101562 78.74328125 -16.11328125 78.2890625 C-13.41643343 77.17242538 -10.71283736 76.07708199 -8 75 C-8 74.01 -8 73.02 -8 72 C-8.99 72.495 -8.99 72.495 -10 73 C-10.66 72.34 -11.32 71.68 -12 71 C-11.34 71 -10.68 71 -10 71 C-10 69.68 -10 68.36 -10 67 C-10.928125 67.309375 -10.928125 67.309375 -11.875 67.625 C-12.57625 67.74875 -13.2775 67.8725 -14 68 C-14.66 67.34 -15.32 66.68 -16 66 C-15.44444444 61.44444444 -15.44444444 61.44444444 -14 60 C-13.67077125 57.73430763 -13.38769286 55.46186715 -13.125 53.1875 C-12.27064043 46.29024947 -10.85249875 39.70384448 -9 33 C-8.73960937 32.00613281 -8.47921875 31.01226562 -8.2109375 29.98828125 C-6.27746054 22.6742699 -6.27746054 22.6742699 -4.9375 19.41796875 C-3.87977753 16.6899262 -3.64989672 14.09807187 -3.3515625 11.203125 C-2.73202786 7.32070791 -1.354163 3.67923532 0 0 Z " fill="#09B5E5" transform="translate(140,90)"/>
<path d="M0 0 C0.85696068 3.31262111 1.46228519 6.62007831 2 10 C2.66 10 3.32 10 4 10 C4.66 8.68 5.32 7.36 6 6 C6.33 7.32 6.66 8.64 7 10 C6.34 10 5.68 10 5 10 C4.67 11.98 4.34 13.96 4 16 C3.34 16 2.68 16 2 16 C2 17.32 2 18.64 2 20 C1.34 20 0.68 20 0 20 C0 21.65 0 23.3 0 25 C-0.99 25.33 -1.98 25.66 -3 26 C-3.33 26.99 -3.66 27.98 -4 29 C-5.66666667 30.33333333 -7.33333333 31.66666667 -9 33 C-9.33 33.99 -9.66 34.98 -10 36 C-10.99 36 -11.98 36 -13 36 C-13.33 36.99 -13.66 37.98 -14 39 C-16.0625 39.6875 -16.0625 39.6875 -18 40 C-18.33 38.68 -18.66 37.36 -19 36 C-19.66 36 -20.32 36 -21 36 C-21 34.68 -21 33.36 -21 32 C-20.34 32 -19.68 32 -19 32 C-19 31.34 -19 30.68 -19 30 C-17.824375 29.1028125 -17.824375 29.1028125 -16.625 28.1875 C-13.79648989 25.83040824 -13.13897447 24.41692341 -12 21 C-11.34 20.01 -10.68 19.02 -10 18 C-7.375 17.8125 -7.375 17.8125 -5 18 C-5.0515625 17.14148438 -5.103125 16.28296875 -5.15625 15.3984375 C-4.98149863 11.59759525 -4.03929696 9.08841816 -2.5 5.625 C-1.80390625 4.03558594 -1.80390625 4.03558594 -1.09375 2.4140625 C-0.7328125 1.61742188 -0.371875 0.82078125 0 0 Z " fill="#06A8F3" transform="translate(155,120)"/>
<path d="M0 0 C2.125 0.375 2.125 0.375 4 1 C3.01 1 2.02 1 1 1 C0.87882812 1.76183594 0.75765625 2.52367187 0.6328125 3.30859375 C-0.17103978 8.26156047 -0.9896182 13.20941235 -2 18.125 C-2.144375 18.82882813 -2.28875 19.53265625 -2.4375 20.2578125 C-3 22 -3 22 -5 24 C-5.39435672 26.25805736 -5.69106368 28.53355081 -5.9375 30.8125 C-6.64703607 36.84175573 -7.76112835 42.62168914 -9.2109375 48.5234375 C-10.31193455 53.37436508 -11.12624499 58.26597179 -11.90991211 63.17724609 C-12.55295925 67.05195879 -13.53509686 70.37629224 -15 74 C-15.78861703 77.02074125 -16.42895231 80.06844709 -17.0625 83.125 C-17.33344482 84.40685181 -17.33344482 84.40685181 -17.60986328 85.71459961 C-18.49169222 90.01709123 -19.18976569 94.16490017 -19.375 98.5625 C-19.70168649 103.84811995 -21.28595625 108.627984 -22.9375 113.625 C-23.20288574 114.43267822 -23.46827148 115.24035645 -23.74169922 116.07250977 C-25.74028291 121.87014146 -25.74028291 121.87014146 -28 123 C-28.66 122.34 -29.32 121.68 -30 121 C-29.34 121 -28.68 121 -28 121 C-27.87181885 120.01870117 -27.7436377 119.03740234 -27.61157227 118.02636719 C-27.01023627 113.82996063 -26.13269037 109.71513299 -25.21484375 105.578125 C-25.03832275 104.77346298 -24.86180176 103.96880096 -24.67993164 103.13975525 C-24.10187731 100.50922128 -23.51985009 97.87958604 -22.9375 95.25 C-22.52997062 93.4014615 -22.12250071 91.55290989 -21.71508789 89.7043457 C-18.86083252 76.778451 -15.9420789 63.86789948 -12.96411133 50.9699707 C-11.19264103 43.28679965 -9.46587329 35.595907 -7.79296875 27.890625 C-7.42656544 26.21068207 -7.06011092 24.5307503 -6.69360352 22.85083008 C-5.99201992 19.63358912 -5.30004546 16.41447233 -4.61303711 13.1940918 C-4.2970766 11.74259642 -3.98077055 10.2911762 -3.6640625 8.83984375 C-3.39029785 7.56488037 -3.1165332 6.28991699 -2.83447266 4.97631836 C-2 2 -2 2 0 0 Z " fill="#4AD9C7" transform="translate(91,38)"/>
<path d="M0 0 C3.12482562 -0.08687496 6.24934246 -0.14034568 9.375 -0.1875 C10.70917969 -0.22520508 10.70917969 -0.22520508 12.0703125 -0.26367188 C12.92109375 -0.27333984 13.771875 -0.28300781 14.6484375 -0.29296875 C15.82672119 -0.31653442 15.82672119 -0.31653442 17.02880859 -0.34057617 C17.67930176 -0.22818604 18.32979492 -0.1157959 19 0 C21 3 21 3 20.64453125 5.390625 C20.36996094 6.33421875 20.09539062 7.2778125 19.8125 8.25 C18.57592774 12.77509849 17.50869447 17.26752943 16.625 21.875 C15.45622361 27.83875646 14.17188371 33.76443153 12.8125 39.6875 C10.48289308 49.84582913 8.199634 60.01396642 5.9375 70.1875 C5.76384918 70.96833954 5.59019836 71.74917908 5.4112854 72.55368042 C2.86347464 84.01979816 0.36334998 95.49421722 -2 107 C-4 105 -4 105 -4.08203125 103.0390625 C-3.4404271 97.29252101 -2.28135128 91.86536633 -0.80859375 86.27734375 C0.03819767 82.84517947 0.69019728 79.41724006 1.3125 75.9375 C4.01915878 60.84501816 7.11169024 45.57583771 11.5 30.875 C11.7578125 30.00617188 12.015625 29.13734375 12.28125 28.2421875 C13 26 13 26 14 24 C13.99420013 21.97874548 13.94587789 19.95751975 13.875 17.9375 C13.808147 11.9207296 14.74299667 7.54846653 17 2 C11.39 2 5.78 2 0 2 C0 1.34 0 0.68 0 0 Z " fill="#3FC6D1" transform="translate(96,38)"/>
<path d="M0 0 C0.66 0.33 1.32 0.66 2 1 C0.77748473 12.95169537 -1.53626783 24.34302852 -4.50439453 35.97705078 C-4.9877014 37.94979992 -5.41987175 39.92531406 -5.83203125 41.9140625 C-5.98889404 42.66703613 -6.14575684 43.42000977 -6.30737305 44.19580078 C-6.47406494 44.99743652 -6.64075684 45.79907227 -6.8125 46.625 C-8.24657549 53.46361868 -9.69510156 60.29885117 -11.1875 67.125 C-11.35419189 67.90053223 -11.52088379 68.67606445 -11.69262695 69.47509766 C-12.884258 74.884258 -12.884258 74.884258 -14 76 C-15.28250131 80.95967304 -16.04562346 85.96010748 -16.4375 91.0625 C-16.87054517 95.86398329 -17.71108975 100.70584786 -20 105 C-21.485 105.495 -21.485 105.495 -23 106 C-21.0343684 95.17041229 -18.86051375 84.39881602 -16.52050781 73.64404297 C-15.99752593 71.23862065 -15.47901664 68.83226374 -14.9609375 66.42578125 C-13.3302477 58.88359894 -11.62450444 51.37823275 -9.71484375 43.90087891 C-8.33927072 38.31872088 -7.1836411 32.68787763 -6 27.0625 C-4.09090217 18.01914336 -2.10967895 8.99886549 0 0 Z " fill="#50C5DF" transform="translate(128,25)"/>
<path d="M0 0 C0 3.66459051 -1.06864541 4.92413899 -3 8 C-4.0150089 9.99242489 -5.01873444 11.99074195 -6 14 C-6.99 14 -7.98 14 -9 14 C-9.12375 14.969375 -9.2475 15.93875 -9.375 16.9375 C-9.58125 17.948125 -9.7875 18.95875 -10 20 C-10.66 20.33 -11.32 20.66 -12 21 C-12.65772428 24.02934491 -12.65772428 24.02934491 -13 27 C-13.66 27 -14.32 27 -15 27 C-16.1302932 36.40551762 -16.11666086 45.73387522 -16.0625 55.1875 C-16.05747197 56.72721208 -16.05291138 58.26692575 -16.04882812 59.80664062 C-16.03793264 63.53779428 -16.02074082 67.26888654 -16 71 C-15.34 71 -14.68 71 -14 71 C-13.75765625 72.09699219 -13.5153125 73.19398437 -13.265625 74.32421875 C-12.9277847 75.77880891 -12.58920375 77.23322719 -12.25 78.6875 C-12.09273437 79.40873047 -11.93546875 80.12996094 -11.7734375 80.87304688 C-10.50145735 86.23004022 -8.59285392 89.79127259 -4.3125 93.4375 C-2.37718876 95.74144195 -2.32522743 98.07295311 -2 101 C-12.63454402 91.92935951 -19.05077719 73.97474372 -20.80859375 60.30078125 C-22.06589271 38.61878897 -16.67211381 19.46674795 -2.5 2.6875 C-1.675 1.800625 -0.85 0.91375 0 0 Z " fill="#3BF8A7" transform="translate(34,50)"/>
<path d="M0 0 C1.32 0.33 2.64 0.66 4 1 C4.495 3.475 4.495 3.475 5 6 C3.02 6 1.04 6 -1 6 C-0.67 7.32 -0.34 8.64 0 10 C-0.99 10.33 -1.98 10.66 -3 11 C-3 11.66 -3 12.32 -3 13 C-5.17893512 14.51657539 -7.44844314 15.82968326 -9.73828125 17.171875 C-12.56130073 19.45369385 -13.47958656 21.72620655 -15 25 C-16.27719401 26.79646386 -17.59070276 28.56760914 -18.9375 30.3125 C-22.41178706 34.98327266 -24.9578035 39.55862117 -27 45 C-27.33 45 -27.66 45 -28 45 C-28.42361335 40.34025316 -26.97465607 37.17715706 -25 33 C-24.690625 32.21625 -24.38125 31.4325 -24.0625 30.625 C-23 29 -23 29 -20.875 28.25 C-19.946875 28.12625 -19.946875 28.12625 -19 28 C-18.67 26.35 -18.34 24.7 -18 23 C-17.01 23 -16.02 23 -15 23 C-16.11693251 17.66471413 -16.11693251 17.66471413 -20 14 C-18.71034824 12.62437146 -17.37310707 11.29233607 -16 10 C-15.34 10 -14.68 10 -14 10 C-14 9.34 -14 8.68 -14 8 C-11.953125 6.4921875 -11.953125 6.4921875 -9.25 4.875 C-8.36828125 4.33617187 -7.4865625 3.79734375 -6.578125 3.2421875 C-4 2 -4 2 0 2 C0 1.34 0 0.68 0 0 Z " fill="#06E6A9" transform="translate(59,34)"/>
<path d="M0 0 C0.33 0 0.66 0 1 0 C0.85913398 2.60452271 0.71251536 5.20850197 0.5625 7.8125 C0.50352539 8.91948242 0.50352539 8.91948242 0.44335938 10.04882812 C0.25618965 13.23071342 0.01279207 15.96162378 -1 19 C1.475 19.99 1.475 19.99 4 21 C4 21.66 4 22.32 4 23 C4.99 23 5.98 23 7 23 C7.66 22.34 8.32 21.68 9 21 C8.67 22.65 8.34 24.3 8 26 C7.01 26.33 6.02 26.66 5 27 C5 27.66 5 28.32 5 29 C5.66 29 6.32 29 7 29 C6.67 30.98 6.34 32.96 6 35 C7.485 35.495 7.485 35.495 9 36 C-0.13062724 35.85031759 -6.76506498 32.06411411 -13.32421875 25.76953125 C-13.87722656 25.18558594 -14.43023437 24.60164063 -15 24 C-13.906875 24.33 -12.81375 24.66 -11.6875 25 C-8.15421116 26.13086649 -8.15421116 26.13086649 -5 26 C-5.66 25.67 -6.32 25.34 -7 25 C-6 23 -6 23 -5 22 C-4.83964641 20.50336654 -4.72235494 19.00204761 -4.625 17.5 C-4.16425592 12.32034481 -2.8226053 7.84377169 -1 3 C-0.67 2.01 -0.34 1.02 0 0 Z " fill="#10E3B0" transform="translate(57,137)"/>
<path d="M0 0 C0.66 0 1.32 0 2 0 C1.86722656 0.54527344 1.73445313 1.09054688 1.59765625 1.65234375 C-2.24631926 18.06639974 -1.93905596 34.07253174 4 50 C6.17390091 47.82609909 6.30382004 43.59456379 6.9609375 40.6171875 C7.3540025 38.87496295 7.7472372 37.13277669 8.140625 35.390625 C8.7574137 32.6395516 9.3721034 29.88804168 9.98339844 27.13574219 C10.57420758 24.4823676 11.17335603 21.83097815 11.7734375 19.1796875 C11.9516806 18.36587616 12.12992371 17.55206482 12.31356812 16.71359253 C13.41920997 11.85233433 14.89663506 7.52295159 17 3 C18.0866886 6.26006581 17.92186114 7.26313894 17.1796875 10.515625 C16.97625732 11.42691162 16.77282715 12.33819824 16.56323242 13.27709961 C16.33611572 14.25815674 16.10899902 15.23921387 15.875 16.25 C15.40991896 18.31895709 14.9450828 20.38796924 14.48046875 22.45703125 C14.11574463 24.06312256 14.11574463 24.06312256 13.74365234 25.70166016 C12.52508612 31.1063974 11.35838316 36.52227199 10.1875 41.9375 C9.76456877 43.88416801 9.34141455 45.8307876 8.91796875 47.77734375 C8.65149536 49.00312134 8.65149536 49.00312134 8.37963867 50.25366211 C8.25435791 50.82995361 8.12907715 51.40624512 8 52 C5.525 52.495 5.525 52.495 3 53 C2.67 51.35 2.34 49.7 2 48 C1.34 48 0.68 48 0 48 C-1.50735108 43.2769666 -2.33717823 38.85917241 -2.75390625 33.91796875 C-2.9033004 31.91861024 -2.9033004 31.91861024 -4 30 C-4.09502826 28.61061505 -4.13072839 27.21684812 -4.1328125 25.82421875 C-4.13410156 24.99599609 -4.13539062 24.16777344 -4.13671875 23.31445312 C-4.13285156 22.44755859 -4.12898438 21.58066406 -4.125 20.6875 C-4.12886719 19.83220703 -4.13273437 18.97691406 -4.13671875 18.09570312 C-4.12349921 9.56248799 -4.12349921 9.56248799 -3 6 C-2.34 5.67 -1.68 5.34 -1 5 C-0.34444881 2.47266765 -0.34444881 2.47266765 0 0 Z " fill="#5DE3B4" transform="translate(29,79)"/>
<path d="M0 0 C-0.47939368 4.71403788 -0.96834048 8.66579301 -3 13 C-3.99 13 -4.98 13 -6 13 C-6 12.34 -6 11.68 -6 11 C-5.34 11 -4.68 11 -4 11 C-3.67 8.03 -3.34 5.06 -3 2 C-4.32515625 2.34933594 -5.6503125 2.69867187 -7.015625 3.05859375 C-8.76041322 3.51824226 -10.50520507 3.97787695 -12.25 4.4375 C-13.12269531 4.66759766 -13.99539062 4.89769531 -14.89453125 5.13476562 C-16.16103516 5.46831055 -16.16103516 5.46831055 -17.453125 5.80859375 C-18.22817383 6.01282959 -19.00322266 6.21706543 -19.80175781 6.42749023 C-21.8647515 6.96477591 -23.93088729 7.48684356 -26 8 C-26 8.66 -26 9.32 -26 10 C-27.2375 10.433125 -28.475 10.86625 -29.75 11.3125 C-32.94090502 12.49640469 -35.33992498 13.85147787 -38 16 C-38.66 16 -39.32 16 -40 16 C-40 16.66 -40 17.32 -40 18 C-41.75 19.5078125 -41.75 19.5078125 -44 21.125 C-44.7425 21.66382812 -45.485 22.20265625 -46.25 22.7578125 C-46.8275 23.16773437 -47.405 23.57765625 -48 24 C-48.66 23.67 -49.32 23.34 -50 23 C-38.75175586 10.74611814 -17.39940191 -4.01524659 0 0 Z " fill="#40DEAD" transform="translate(85,26)"/>
<path d="M0 0 C2.0625 0.4375 2.0625 0.4375 4 1 C3.01 1 2.02 1 1 1 C0.87882812 1.76183594 0.75765625 2.52367187 0.6328125 3.30859375 C-0.17103978 8.26156047 -0.9896182 13.20941235 -2 18.125 C-2.144375 18.82882813 -2.28875 19.53265625 -2.4375 20.2578125 C-3 22 -3 22 -5 24 C-5.39435672 26.25805736 -5.69106368 28.53355081 -5.9375 30.8125 C-6.78586111 38.01748487 -8.22616546 44.96157631 -10 52 C-10.21011719 52.85335937 -10.42023438 53.70671875 -10.63671875 54.5859375 C-11.0836069 56.3925066 -11.5403208 58.19664314 -12 60 C-12.66 60 -13.32 60 -14 60 C-14 62.64 -14 65.28 -14 68 C-14.99 68.495 -14.99 68.495 -16 69 C-15.45175819 61.71025081 -14.22442439 54.74299549 -12.6015625 47.62109375 C-12.36593597 46.56898209 -12.13030945 45.51687042 -11.88754272 44.43287659 C-11.39111533 42.2229148 -10.89177403 40.01360571 -10.38964844 37.80493164 C-9.62676416 34.44526917 -8.87522476 31.08321246 -8.125 27.72070312 C-7.638695 25.56234799 -7.15173769 23.4041397 -6.6640625 21.24609375 C-6.44207184 20.25210068 -6.22008118 19.2581076 -5.99136353 18.23399353 C-2.36230031 2.36230031 -2.36230031 2.36230031 0 0 Z " fill="#4FD1CB" transform="translate(91,38)"/>
<path d="M0 0 C0.91053964 2.95316891 1.02613475 4.9405273 0.35083008 7.94799805 C0.09980278 9.09651497 0.09980278 9.09651497 -0.15629578 10.26823425 C-0.34577286 11.09108414 -0.53524994 11.91393402 -0.73046875 12.76171875 C-1.01800774 14.05780815 -1.01800774 14.05780815 -1.31135559 15.38008118 C-1.92836587 18.15117001 -2.55783965 20.91926133 -3.1875 23.6875 C-3.59259644 25.50047257 -3.99690119 27.31362223 -4.40039062 29.12695312 C-7.6092356 43.48502889 -7.6092356 43.48502889 -9.22900391 49.94775391 C-9.42029373 50.7211763 -9.61158356 51.49459869 -9.80867004 52.29145813 C-10.16678046 53.73011676 -10.53344185 55.16668627 -10.91044617 56.60050964 C-11.85336931 60.40379338 -12.11975142 63.2213496 -11 67 C-12.32 67 -13.64 67 -15 67 C-15.625 65.1875 -15.625 65.1875 -16 63 C-15.34 62.01 -14.68 61.02 -14 60 C-13.61498441 57.69846236 -13.31388659 55.38243907 -13.0625 53.0625 C-12.24715258 46.1986819 -10.84259476 39.66800382 -9 33 C-8.73960937 32.00613281 -8.47921875 31.01226562 -8.2109375 29.98828125 C-6.27746054 22.6742699 -6.27746054 22.6742699 -4.9375 19.41796875 C-3.87977753 16.6899262 -3.64989672 14.09807187 -3.3515625 11.203125 C-2.73202786 7.32070791 -1.354163 3.67923532 0 0 Z " fill="#42B5DE" transform="translate(140,90)"/>
<path d="M0 0 C1.32 0.33 2.64 0.66 4 1 C3.67 1.99 3.34 2.98 3 4 C3.66 4.66 4.32 5.32 5 6 C3.66666667 8.66666667 2.33333333 11.33333333 1 14 C0.01 14 -0.98 14 -2 14 C-2.33 14.99 -2.66 15.98 -3 17 C-5.0625 17.6875 -5.0625 17.6875 -7 18 C-7.33 16.68 -7.66 15.36 -8 14 C-8.66 14 -9.32 14 -10 14 C-10 12.68 -10 11.36 -10 10 C-9.34 10 -8.68 10 -8 10 C-8 9.34 -8 8.68 -8 8 C-6.34997172 6.64613064 -4.6825613 5.31321858 -3 4 C-2.67 3.34 -2.34 2.68 -2 2 C-1.34 2 -0.68 2 0 2 C0 1.34 0 0.68 0 0 Z " fill="#05ADEB" transform="translate(144,142)"/>
<path d="M0 0 C0 3.66459051 -1.06864541 4.92413899 -3 8 C-4.0150089 9.99242489 -5.01873444 11.99074195 -6 14 C-6.99 14 -7.98 14 -9 14 C-9.12375 14.969375 -9.2475 15.93875 -9.375 16.9375 C-9.58125 17.948125 -9.7875 18.95875 -10 20 C-10.66 20.33 -11.32 20.66 -12 21 C-12.65772428 24.02934491 -12.65772428 24.02934491 -13 27 C-13.66 27 -14.32 27 -15 27 C-15.04898437 27.78246094 -15.09796875 28.56492187 -15.1484375 29.37109375 C-15.26058594 30.88896484 -15.26058594 30.88896484 -15.375 32.4375 C-15.44460937 33.44683594 -15.51421875 34.45617187 -15.5859375 35.49609375 C-15.72257812 36.32238281 -15.85921875 37.14867187 -16 38 C-16.99 38.495 -16.99 38.495 -18 39 C-18 48.9 -18 58.8 -18 69 C-23.35358671 60.96961994 -21.54745393 47.2535249 -20 38 C-16.7214155 23.50602864 -10.14565314 10.90657713 0 0 Z " fill="#59EAAF" transform="translate(34,50)"/>
<path d="M0 0 C0.33 0 0.66 0 1 0 C0.36495125 6.78499459 -0.80572191 13.29331698 -2.28515625 19.94140625 C-2.6159745 21.45383156 -2.6159745 21.45383156 -2.95347595 22.99681091 C-3.65216455 26.18634039 -4.35722405 29.37442139 -5.0625 32.5625 C-5.54013683 34.7375373 -6.01735456 36.91266667 -6.49414062 39.08789062 C-7.65791676 44.39300137 -8.82691313 49.69694076 -10 55 C-10.33 55 -10.66 55 -11 55 C-11.02692484 52.70839681 -11.04636124 50.41670454 -11.0625 48.125 C-11.07410156 46.84882812 -11.08570313 45.57265625 -11.09765625 44.2578125 C-11 41 -11 41 -10 39 C-9.845364 37.27323132 -9.7252657 35.54327704 -9.625 33.8125 C-9.23124136 28.90665462 -8.23010841 25.36325559 -6 21 C-5.34 21 -4.68 21 -4 21 C-3.96261719 20.32195313 -3.92523438 19.64390625 -3.88671875 18.9453125 C-3.41514671 12.26933186 -2.18078865 6.32291553 0 0 Z " fill="#42AFE5" transform="translate(152,35)"/>
<path d="M0 0 C0.66 0.33 1.32 0.66 2 1 C0.77891762 12.93768695 -1.51243329 24.32788393 -4.5 35.9440918 C-5.02464301 38.10132751 -5.47132791 40.26358092 -5.90234375 42.44140625 C-6.07056641 43.27220703 -6.23878906 44.10300781 -6.41210938 44.95898438 C-6.76297556 46.69766327 -7.10931646 48.43726138 -7.45117188 50.17773438 C-7.70543945 51.42200195 -7.70543945 51.42200195 -7.96484375 52.69140625 C-8.1155835 53.44623291 -8.26632324 54.20105957 -8.42163086 54.97875977 C-9 57 -9 57 -11 60 C-8.12287487 39.79254062 -5.22913498 19.75945472 0 0 Z " fill="#49C3E8" transform="translate(128,25)"/>
<path d="M0 0 C8.58 0 17.16 0 26 0 C27.10318677 4.41274708 26.64855836 6.40576658 25.5625 10.75 C25.13130859 12.50570313 25.13130859 12.50570313 24.69140625 14.296875 C24.46324219 15.18890625 24.23507813 16.0809375 24 17 C23.67 17 23.34 17 23 17 C22.9727585 15.58344207 22.95349533 14.16672955 22.9375 12.75 C22.92589844 11.96109375 22.91429687 11.1721875 22.90234375 10.359375 C22.99643951 8.08602141 23.41648066 6.18870232 24 4 C20.20839703 3.94213332 16.41690689 3.90644946 12.625 3.875 C11.54476562 3.85824219 10.46453125 3.84148438 9.3515625 3.82421875 C7.8046875 3.81455078 7.8046875 3.81455078 6.2265625 3.8046875 C5.27346191 3.79421387 4.32036133 3.78374023 3.33837891 3.77294922 C0.8076787 3.76868133 0.8076787 3.76868133 -1 6 C-0.67 4.02 -0.34 2.04 0 0 Z " fill="#44B2E3" transform="translate(130,18)"/>
<path d="M0 0 C1.0866886 3.26006581 0.92186114 4.26313894 0.1796875 7.515625 C-0.02374268 8.42691162 -0.22717285 9.33819824 -0.43676758 10.27709961 C-0.66388428 11.25815674 -0.89100098 12.23921387 -1.125 13.25 C-1.59008104 15.31895709 -2.0549172 17.38796924 -2.51953125 19.45703125 C-2.76268066 20.52775879 -3.00583008 21.59848633 -3.25634766 22.70166016 C-4.47491388 28.1063974 -5.64161684 33.52227199 -6.8125 38.9375 C-7.23543123 40.88416801 -7.65858545 42.8307876 -8.08203125 44.77734375 C-8.25968018 45.59452881 -8.4373291 46.41171387 -8.62036133 47.25366211 C-8.74564209 47.82995361 -8.87092285 48.40624512 -9 49 C-11.62509432 39.16205392 -8.42112496 28.76118509 -6.125 19.125 C-5.868396 18.04323486 -5.61179199 16.96146973 -5.34741211 15.84692383 C-3.98068316 10.3040071 -2.45429445 5.15842725 0 0 Z " fill="#43E8B5" transform="translate(46,82)"/>
<path d="M0 0 C3.86649108 0.40699906 7.30109353 0.76915183 11.00390625 1.9921875 C16.33982737 3.56170231 21.85164912 3.54808505 27.375 3.75 C29.00308594 3.83314453 29.00308594 3.83314453 30.6640625 3.91796875 C36.44215114 4.14825489 41.58087033 3.97936874 47.17602539 2.45849609 C49.47883064 1.8796354 51.63798485 1.84761193 54 2 C40.47943386 9.58470783 23.90610682 8.03336862 9.59375 4.0703125 C6.37066902 3.1103949 3.18122326 2.08986352 0 1 C0 0.67 0 0.34 0 0 Z " fill="#4CC1CA" transform="translate(61,173)"/>
<path d="M0 0 C1.32 0.99 2.64 1.98 4 3 C3.54711082 7.1514841 3.00479419 11.11740405 1.97265625 15.1640625 C0.84921876 20.1259114 0.73695849 24.86826703 0.8125 29.9375 C0.81314453 30.78634766 0.81378906 31.63519531 0.81445312 32.50976562 C0.71168496 36.90510121 0.71168496 36.90510121 2 41 C2.20395706 42.39087382 2.36513121 43.78823631 2.5 45.1875 C2.90338649 49.14452935 3.41409979 53.06609862 4 57 C-0.56255283 48.26749185 -1.43677698 40.06576052 -1.25 30.3125 C-1.24484375 29.22388672 -1.2396875 28.13527344 -1.234375 27.01367188 C-1.18142521 21.56977172 -0.88060985 16.36819765 0 11 C0.03703237 8.66696056 0.04760913 6.33284758 0 4 C-0.66 3.67 -1.32 3.34 -2 3 C-1.34 2.01 -0.68 1.02 0 0 Z " fill="#05F697" transform="translate(25,70)"/>
<path d="M0 0 C0.98066404 2.94199213 1.02238277 4.47374037 0.875 7.5 C0.81994131 11.33759089 1.2874812 14.30560957 2.5 17.9375 C4.08763558 23.2120618 4.30402006 28.16020558 4.3125 33.625 C4.31765625 34.41253662 4.3228125 35.20007324 4.328125 36.01147461 C4.26339061 41.5514672 3.39370799 46.64375762 2 52 C1.67 52 1.34 52 1 52 C1.33 43.09 1.66 34.18 2 25 C1.34 24.67 0.68 24.34 0 24 C-1.65730481 16.68284291 -1.38191911 8.44742273 -1 1 C-0.67 0.67 -0.34 0.34 0 0 Z " fill="#2CB0F7" transform="translate(154,68)"/>
<path d="M0 0 C0.79921875 0.00902344 1.5984375 0.01804688 2.421875 0.02734375 C3.02515625 0.03894531 3.6284375 0.05054688 4.25 0.0625 C4.25 0.3925 4.25 0.7225 4.25 1.0625 C3.61835937 1.18625 2.98671875 1.31 2.3359375 1.4375 C-9.32308402 4.12545885 -19.55603636 10.52459192 -28.75 18.0625 C-27.5478674 13.38753988 -25.20867887 11.59866659 -21.40625 8.98046875 C-19.75 8.0625 -19.75 8.0625 -17.75 8.0625 C-17.75 7.4025 -17.75 6.7425 -17.75 6.0625 C-16.33671871 5.24412558 -14.91921654 4.43303781 -13.5 3.625 C-12.31664062 2.94630859 -12.31664062 2.94630859 -11.109375 2.25390625 C-7.32267426 0.34174776 -4.21626882 -0.06200395 0 0 Z " fill="#46DCBE" transform="translate(73.75,38.9375)"/>
<path d="M0 0 C6.93 0 13.86 0 21 0 C19.95148443 7.09764385 18.79432349 13.39523539 16 20 C14 19 14 19 13.125 17.25 C13 15 13 15 14.875 12.6875 C17.44732465 9.43426588 17.68042429 7.07459035 18 3 C16.68 3.33 15.36 3.66 14 4 C14 3.34 14 2.68 14 2 C7.07 1.505 7.07 1.505 0 1 C0 0.67 0 0.34 0 0 Z " fill="#12DCB6" transform="translate(52,67)"/>
<path d="M0 0 C3.45806006 5.1870901 1.41663485 10.8839335 0.2578125 16.76953125 C-0.46911463 20.18608878 -1.21994215 23.59521919 -2 27 C-2.66 27 -3.32 27 -4 27 C-4.33 28.65 -4.66 30.3 -5 32 C-6.3690722 28.21372317 -5.64698489 25.35380972 -4.78515625 21.484375 C-4.51123047 20.23398438 -4.23730469 18.98359375 -3.95507812 17.6953125 C-3.65774465 16.38016478 -3.36021613 15.06506115 -3.0625 13.75 C-2.76806349 12.4194513 -2.47443453 11.08872363 -2.18164062 9.7578125 C-1.46235913 6.50335853 -0.7348552 3.25096649 0 0 Z " fill="#42C8D2" transform="translate(104,133)"/>
<path d="M0 0 C3.63 0.33 7.26 0.66 11 1 C11 1.66 11 2.32 11 3 C23.75776577 2.5261045 36.34546802 1.70827889 49 0 C49 0.66 49 1.32 49 2 C39.89821214 4.88196145 31.52800268 5.20324918 22.0625 4.8125 C20.98492432 4.7700415 19.90734863 4.72758301 18.79711914 4.68383789 C11.88121765 4.32159945 5.88622725 3.9241515 0 0 Z " fill="#27D2CF" transform="translate(66,173)"/>
<path d="M0 0 C0.91120605 0.01047363 1.82241211 0.02094727 2.76123047 0.03173828 C3.74736328 0.03818359 4.73349609 0.04462891 5.74951172 0.05126953 C7.29832031 0.07640625 7.29832031 0.07640625 8.87841797 0.10205078 C9.91869141 0.11107422 10.95896484 0.12009766 12.03076172 0.12939453 C14.60520889 0.15301331 17.17920009 0.18594929 19.75341797 0.22705078 C19.75341797 0.55705078 19.75341797 0.88705078 19.75341797 1.22705078 C9.35841797 1.72205078 9.35841797 1.72205078 -1.24658203 2.22705078 C-2.23658203 7.17705078 -3.22658203 12.12705078 -4.24658203 17.22705078 C-4.90658203 17.22705078 -5.56658203 17.22705078 -6.24658203 17.22705078 C-6.90658203 18.54705078 -7.56658203 19.86705078 -8.24658203 21.22705078 C-7.56501726 16.94292933 -6.75065115 12.7116725 -5.80908203 8.47705078 C-5.56287109 7.34783203 -5.31666016 6.21861328 -5.06298828 5.05517578 C-4.11146773 1.75899931 -3.54264146 0.35803701 0 0 Z " fill="#53D6B7" transform="translate(52.24658203125,64.77294921875)"/>
<path d="M0 0 C-0.47939368 4.71403788 -0.96834048 8.66579301 -3 13 C-3.99 13 -4.98 13 -6 13 C-6 12.34 -6 11.68 -6 11 C-5.34 11 -4.68 11 -4 11 C-3.67 8.03 -3.34 5.06 -3 2 C-3.85722656 2.13277344 -4.71445313 2.26554687 -5.59765625 2.40234375 C-11.39456209 3.29769448 -17.19059708 4.18938564 -23 5 C-19.7362913 2.8241942 -16.94302927 1.92036114 -13.1875 0.8125 C-11.98480469 0.44769531 -10.78210938 0.08289063 -9.54296875 -0.29296875 C-5.94033625 -1.01190644 -3.54242675 -0.85170138 0 0 Z " fill="#53CABE" transform="translate(85,26)"/>
<path d="M0 0 C1.32 0 2.64 0 4 0 C3.39700836 7.23589973 1.8849413 13.99370876 0 21 C2.97 20.67 5.94 20.34 9 20 C9 20.66 9 21.32 9 22 C5.7 22 2.4 22 -1 22 C-2.125 17.25 -2.125 17.25 -1 15 C-0.76827173 12.45384991 -0.58105471 9.92603775 -0.4375 7.375 C-0.39431641 6.66859375 -0.35113281 5.9621875 -0.30664062 5.234375 C-0.20055249 3.48981463 -0.09977111 1.74493303 0 0 Z " fill="#49CDCB" transform="translate(89,145)"/>
<path d="M0 0 C0.33 0 0.66 0 1 0 C1.08948558 4.47427924 0.85743651 8.60563789 0 13 C3.3 13.33 6.6 13.66 10 14 C10.66 11.69 11.32 9.38 12 7 C12.6875 8.6875 12.6875 8.6875 13 11 C11.794222 13.72886601 10.96926477 15.51536761 8.25 16.875 C5.00650522 17.05519415 2.16902052 16.70422678 -1 16 C-3.1519437 12.77208445 -3.20086443 11.71599191 -3 8 C-2.34 8 -1.68 8 -1 8 C-0.67 5.36 -0.34 2.72 0 0 Z " fill="#1DD2CD" transform="translate(88,153)"/>
<path d="M0 0 C6.27 0 12.54 0 19 0 C18.26962189 5.11264676 17.47363284 9.18613272 16 14 C15.34 13.67 14.68 13.34 14 13 C14.99 9.37 15.98 5.74 17 2 C11.39 2 5.78 2 0 2 C0 1.34 0 0.68 0 0 Z " fill="#3DB8D5" transform="translate(96,38)"/>
<path d="M0 0 C0.99 0.33 1.98 0.66 3 1 C-2.70009321 8.48997755 -8.37106904 14.44155135 -16 20 C-16.33 19.34 -16.66 18.68 -17 18 C-16.34 18 -15.68 18 -15 18 C-14.896875 17.360625 -14.79375 16.72125 -14.6875 16.0625 C-14.460625 15.381875 -14.23375 14.70125 -14 14 C-13.01 13.67 -12.02 13.34 -11 13 C-10.67 12.34 -10.34 11.68 -10 11 C-9.01 11 -8.02 11 -7 11 C-6.896875 10.401875 -6.79375 9.80375 -6.6875 9.1875 C-5.90175967 6.68741714 -5.03081147 5.62464918 -3 4 C-2.34 4 -1.68 4 -1 4 C-0.67 2.68 -0.34 1.36 0 0 Z " fill="#3DADE6" transform="translate(152,145)"/>
<path d="M0 0 C-5.74559444 5.00422741 -12.24478285 9.40344483 -20 10 C-20 9.01 -20 8.02 -20 7 C-19.16855469 6.66226563 -18.33710937 6.32453125 -17.48046875 5.9765625 C-16.39378906 5.53054687 -15.30710937 5.08453125 -14.1875 4.625 C-13.10855469 4.18414062 -12.02960938 3.74328125 -10.91796875 3.2890625 C-3.0941331 -0.16725044 -3.0941331 -0.16725044 0 0 Z " fill="#3BB8DB" transform="translate(135,165)"/>
<path d="M0 0 C0.33 0 0.66 0 1 0 C1.34416942 5.2772645 0.42747237 9.27792871 -1.19921875 14.2890625 C-2.5266123 18.7827753 -3.2533946 23.37983011 -4 28 C-4.33 28 -4.66 28 -5 28 C-4.98839844 27.37351562 -4.97679687 26.74703125 -4.96484375 26.1015625 C-4.95582031 25.28429687 -4.94679687 24.46703125 -4.9375 23.625 C-4.92589844 22.81289063 -4.91429687 22.00078125 -4.90234375 21.1640625 C-4.85533666 18.95062858 -4.85533666 18.95062858 -6 17 C-6.66 16.67 -7.32 16.34 -8 16 C-7.67 15.34 -7.34 14.68 -7 14 C-6.01 14 -5.02 14 -4 14 C-3.5196682 12.41701974 -3.04078388 10.83360022 -2.5625 9.25 C-2.16224609 7.92742188 -2.16224609 7.92742188 -1.75390625 6.578125 C-1.11531506 4.39434165 -0.53224167 2.21164502 0 0 Z " fill="#1CAFF2" transform="translate(152,28)"/>
<path d="M0 0 C0.33 0 0.66 0 1 0 C1.29999084 5.49983207 0.69704645 9.46370798 -1.19921875 14.61328125 C-2.55325644 18.64897406 -3.25745996 22.81556849 -4 27 C-4.33 27 -4.66 27 -5 27 C-5 22.05 -5 17.1 -5 12 C-4.01 12 -3.02 12 -2 12 C-2.33 10.68 -2.66 9.36 -3 8 C-2.34 8 -1.68 8 -1 8 C-0.67 5.36 -0.34 2.72 0 0 Z " fill="#1FB7EC" transform="translate(140,82)"/>
<path d="M0 0 C1.32 0.33 2.64 0.66 4 1 C3.56429687 1.51046875 3.12859375 2.0209375 2.6796875 2.546875 C-2.2728504 8.59283036 -5.72913331 14.91911277 -9 22 C-9.33 22 -9.66 22 -10 22 C-10.42361335 17.34025316 -8.97465607 14.17715706 -7 10 C-6.690625 9.21625 -6.38125 8.4325 -6.0625 7.625 C-5 6 -5 6 -2.875 5.25 C-2.25625 5.1675 -1.6375 5.085 -1 5 C-0.67 3.35 -0.34 1.7 0 0 Z " fill="#48DFAC" transform="translate(41,57)"/>
<path d="M0 0 C0.66 0 1.32 0 2 0 C1.52546129 2.48013629 1.04561015 4.95903256 0.5625 7.4375 C0.42779297 8.14455078 0.29308594 8.85160156 0.15429688 9.58007812 C-0.88671875 14.88671875 -0.88671875 14.88671875 -2 16 C-2.23427778 18.01594582 -2.41336124 20.038474 -2.5625 22.0625 C-2.64628906 23.16722656 -2.73007812 24.27195312 -2.81640625 25.41015625 C-2.87699219 26.26480469 -2.93757813 27.11945313 -3 28 C-3.33 28 -3.66 28 -4 28 C-4.0270817 25.27076612 -4.04687847 22.54180363 -4.0625 19.8125 C-4.07506836 18.65911133 -4.07506836 18.65911133 -4.08789062 17.48242188 C-4.12158003 9.63279066 -4.12158003 9.63279066 -3 6 C-2.34 5.67 -1.68 5.34 -1 5 C-0.34444881 2.47266765 -0.34444881 2.47266765 0 0 Z " fill="#51EFB4" transform="translate(29,79)"/>
<path d="M0 0 C0.75 1.75 0.75 1.75 1 4 C-0.8125 6.25 -0.8125 6.25 -3 8 C-3.66 8 -4.32 8 -5 8 C-5 8.66 -5 9.32 -5 10 C-5.66 10 -6.32 10 -7 10 C-7 10.66 -7 11.32 -7 12 C-8.98 12.99 -8.98 12.99 -11 14 C-11.66 13.34 -12.32 12.68 -13 12 C-12.14535156 11.21753906 -11.29070312 10.43507812 -10.41015625 9.62890625 C-9.29425993 8.60678273 -8.17837511 7.58464667 -7.0625 6.5625 C-6.21655273 5.7880957 -6.21655273 5.7880957 -5.35351562 4.99804688 C-2.64001674 2.53775333 -2.64001674 2.53775333 0 0 Z " fill="#4AB8DE" transform="translate(141,142)"/>
<path d="M0 0 C0.33 0 0.66 0 1 0 C1.37634203 6.80203375 0.77471079 11.75690073 -2 18 C-3.5390625 16.76953125 -3.5390625 16.76953125 -5 15 C-4.89852876 9.67276001 -2.57666144 4.56771801 0 0 Z " fill="#0AC0CE" transform="translate(110,52)"/>
<path d="M0 0 C0.66 0.66 1.32 1.32 2 2 C1.64453125 4.29296875 1.64453125 4.29296875 0.8125 7.1875 C-0.54776035 12.18524227 -1.69616786 17.16965013 -2.6875 22.25 C-2.93886719 23.53390625 -3.19023438 24.8178125 -3.44921875 26.140625 C-3.63097656 27.08421875 -3.81273438 28.0278125 -4 29 C-4.33 29 -4.66 29 -5 29 C-4.68615508 20.17987554 -4.31049335 12.27623337 -1 4 C-0.64703295 2.67172926 -0.30817411 1.33937209 0 0 Z " fill="#4DB9D4" transform="translate(115,39)"/>
<path d="M0 0 C2.0625 0.4375 2.0625 0.4375 4 1 C3.01 1 2.02 1 1 1 C0.87882812 1.76183594 0.75765625 2.52367187 0.6328125 3.30859375 C-0.38749792 9.59527564 -1.55279729 15.79770268 -3 22 C-3.33 22 -3.66 22 -4 22 C-4.34421608 14.46549239 -4.18284665 7.94289348 -1 1 C-0.67 0.67 -0.34 0.34 0 0 Z " fill="#3FCAC7" transform="translate(91,38)"/>
<path d="M0 0 C0.66 0.33 1.32 0.66 2 1 C-4.76632302 20.88316151 -4.76632302 20.88316151 -9 23 C-9 21.68 -9 20.36 -9 19 C-8.34 19 -7.68 19 -7 19 C-7 17.68 -7 16.36 -7 15 C-6.34 15 -5.68 15 -5 15 C-4.67 13.02 -4.34 11.04 -4 9 C-3.34 9 -2.68 9 -2 9 C-1.855625 7.88625 -1.71125 6.7725 -1.5625 5.625 C-1 2 -1 2 0 0 Z " fill="#46A6DF" transform="translate(164,121)"/>
<path d="M0 0 C0.66 0 1.32 0 2 0 C1.58048134 5.0673438 0.95541992 9.28398725 -1 14 C-1.75486139 17.31728205 -2.38917929 20.65348226 -3 24 C-3.33 24 -3.66 24 -4 24 C-4.02715383 22.25008666 -4.04646551 20.50005055 -4.0625 18.75 C-4.07410156 17.77546875 -4.08570312 16.8009375 -4.09765625 15.796875 C-4.0111252 13.31862574 -3.84745178 11.32383005 -3 9 C-2.34 8.67 -1.68 8.34 -1 8 C-0.53476937 6.10466658 -0.53476937 6.10466658 -0.375 3.9375 C-0.25125 2.638125 -0.1275 1.33875 0 0 Z " fill="#3FDBCD" transform="translate(77,98)"/>
<path d="M0 0 C0.33 0 0.66 0 1 0 C1.06058594 1.13179688 1.12117188 2.26359375 1.18359375 3.4296875 C1.26799917 4.91147145 1.35264717 6.3932416 1.4375 7.875 C1.47681641 8.62136719 1.51613281 9.36773437 1.55664062 10.13671875 C1.71573624 14.19986864 1.71573624 14.19986864 3 18 C3.20395706 19.39087382 3.36513121 20.78823631 3.5 22.1875 C3.90338649 26.14452935 4.41409979 30.06609862 5 34 C-0.70739259 22.88299183 -0.3471374 12.22991776 0 0 Z " fill="#2BF6A7" transform="translate(24,93)"/>
<path d="M0 0 C-3.11215447 2.07476964 -5.32939866 2.71064913 -8.9375 3.5625 C-9.97777344 3.81128906 -11.01804687 4.06007813 -12.08984375 4.31640625 C-13.53037109 4.65478516 -13.53037109 4.65478516 -15 5 C-16.33397509 5.33075573 -17.6676163 5.66289087 -19 6 C-19 6.66 -19 7.32 -19 8 C-20.32 7.67 -21.64 7.34 -23 7 C-19.29294601 3.65258557 -16.37319157 2.27473655 -11.5 1.25 C-10.3965625 1.00765625 -9.293125 0.7653125 -8.15625 0.515625 C-5.35880341 0.0586164 -2.82501749 -0.1054111 0 0 Z " fill="#37E1BE" transform="translate(78,28)"/>
<path d="M0 0 C0.33 0.66 0.66 1.32 1 2 C6.28 2 11.56 2 17 2 C17 2.33 17 2.66 17 3 C14.20865148 3.19425873 11.41716313 3.38069517 8.625 3.5625 C7.8309375 3.61857422 7.036875 3.67464844 6.21875 3.73242188 C0.2265625 4.11328125 0.2265625 4.11328125 -2 3 C-2 3.99 -2 4.98 -2 6 C-1.34 6.33 -0.68 6.66 0 7 C-1.32 7 -2.64 7 -4 7 C-3.67 5.02 -3.34 3.04 -3 1 C-2.01 0.67 -1.02 0.34 0 0 Z " fill="#0DC6D2" transform="translate(95,38)"/>
<path d="M0 0 C0.66 0 1.32 0 2 0 C3.4375 2.1875 3.4375 2.1875 5 5 C6.87012492 8.64943538 6.87012492 8.64943538 10 11 C10.625 14.0625 10.625 14.0625 11 17 C5.81779935 12.57988768 2.9660485 7.07479349 0 1 C0 0.67 0 0.34 0 0 Z " fill="#47E4A7" transform="translate(21,134)"/>
<path d="M0 0 C1.32 0.66 2.64 1.32 4 2 C2.87851562 2.70576172 2.87851562 2.70576172 1.734375 3.42578125 C0.74953125 4.04839844 -0.2353125 4.67101563 -1.25 5.3125 C-2.22453125 5.92738281 -3.1990625 6.54226562 -4.203125 7.17578125 C-6.54733713 8.70475759 -8.78784032 10.28820977 -11 12 C-9.7978674 7.32503988 -7.45867887 5.53616659 -3.65625 2.91796875 C-2 2 -2 2 0 2 C0 1.34 0 0.68 0 0 Z " fill="#4BD8B3" transform="translate(56,45)"/>
<path d="M0 0 C0.33 0 0.66 0 1 0 C1.47266289 7.32627475 0.09866202 12.37384327 -3 19 C-3.33 19 -3.66 19 -4 19 C-4.21496511 14.48573274 -3.55208353 11.22511629 -2 7 C-1.30459294 4.67414531 -0.65458851 2.3378161 0 0 Z " fill="#11BCD6" transform="translate(117,88)"/>
<path d="M0 0 C1.16691444 3.48419134 0.85285758 6.10222787 0.1875 9.6875 C0.01605469 10.66074219 -0.15539062 11.63398437 -0.33203125 12.63671875 C-0.55246094 13.41660156 -0.77289063 14.19648437 -1 15 C-1.99 15.495 -1.99 15.495 -3 16 C-3 12.04 -3 8.08 -3 4 C-2.34 3.67 -1.68 3.34 -1 3 C-0.67 2.01 -0.34 1.02 0 0 Z " fill="#07A9E8" transform="translate(147,44)"/>
<path d="M0 0 C0.33 0 0.66 0 1 0 C0.91297874 2.27155498 0.80480478 4.54230743 0.6875 6.8125 C0.62949219 8.07707031 0.57148437 9.34164062 0.51171875 10.64453125 C0 14 0 14 -1.54296875 15.94921875 C-2.02378906 16.29597656 -2.50460938 16.64273438 -3 17 C-3.66 16.34 -4.32 15.68 -5 15 C-4.34 15 -3.68 15 -3 15 C-2.87625 14.01 -2.7525 13.02 -2.625 12 C-2.04805273 7.91119976 -1.05036346 3.99138113 0 0 Z " fill="#56D5C1" transform="translate(66,144)"/>
<path d="M0 0 C0.66 0.33 1.32 0.66 2 1 C1 6 0 11 -1 16 C-1.33 16 -1.66 16 -2 16 C-2.05449838 14.27119018 -2.09301688 12.54187288 -2.125 10.8125 C-2.14820312 9.84957031 -2.17140625 8.88664062 -2.1953125 7.89453125 C-1.9913544 4.87187222 -1.26874632 2.73230015 0 0 Z " fill="#4DC5D1" transform="translate(103,92)"/>
<path d="M0 0 C5.23066986 0.55059683 9.95258049 1.44694784 15 3 C16.33130115 3.34135927 17.66358148 3.67925956 19 4 C19 4.66 19 5.32 19 6 C16.95749089 5.54543566 14.9160274 5.08617174 12.875 4.625 C11.73804687 4.36976563 10.60109375 4.11453125 9.4296875 3.8515625 C6.21601712 3.05363523 3.12433966 2.09209441 0 1 C0 0.67 0 0.34 0 0 Z " fill="#5FD1BF" transform="translate(61,173)"/>
<path d="M0 0 C0.99 0 1.98 0 3 0 C3.86375896 1.61992165 4.71575854 3.24611861 5.5625 4.875 C6.03816406 5.77992187 6.51382813 6.68484375 7.00390625 7.6171875 C7.33261719 8.40351562 7.66132813 9.18984375 8 10 C7.67 10.66 7.34 11.32 7 12 C6.67 11.01 6.34 10.02 6 9 C5.01 8.67 4.02 8.34 3 8 C2.67 6.35 2.34 4.7 2 3 C1.34 3 0.68 3 0 3 C0 2.01 0 1.02 0 0 Z " fill="#31A1DF" transform="translate(155,63)"/>
<path d="M0 0 C0.33 0 0.66 0 1 0 C0.67 2.64 0.34 5.28 0 8 C2.475 8.99 2.475 8.99 5 10 C5 10.33 5 10.66 5 11 C3.35 11 1.7 11 0 11 C0 10.34 0 9.68 0 9 C-0.66 9 -1.32 9 -2 9 C-1.125 1.125 -1.125 1.125 0 0 Z " fill="#4BD8B9" transform="translate(56,148)"/>
<path d="M0 0 C1.63129887 4.06285757 0.29968777 7.20102184 -0.9375 11.25 C-1.31777344 12.51328125 -1.69804688 13.7765625 -2.08984375 15.078125 C-2.39019531 16.04234375 -2.69054687 17.0065625 -3 18 C-3.33 18 -3.66 18 -4 18 C-3.65226572 11.36906706 -3.03910346 5.946072 0 0 Z " fill="#29E1C1" transform="translate(70,137)"/>
<path d="M0 0 C0.66 0 1.32 0 2 0 C1.68917128 1.75029762 1.37626821 3.50022694 1.0625 5.25 C0.88847656 6.22453125 0.71445313 7.1990625 0.53515625 8.203125 C0.09620271 10.49721795 -0.40348592 12.74291971 -1 15 C-1.66 15 -2.32 15 -3 15 C-3.34733105 9.32692615 -2.39896473 5.99784318 0 1 C0 0.67 0 0.34 0 0 Z " fill="#06ADE6" transform="translate(141,71)"/>
<path d="M0 0 C5.27749285 0.53851968 9.25645564 1.77343836 14 4 C14 4.33 14 4.66 14 5 C8.13551546 4.7444669 4.34242429 4.34242429 0 0 Z " fill="#3EDDB6" transform="translate(52,168)"/>
<path d="M0 0 C2 3 2 3 1.75 5.8125 C1.00997553 8.95760401 0.08628408 11.95840457 -1 15 C-1.66 15 -2.32 15 -3 15 C-2.01 10.05 -1.02 5.1 0 0 Z " fill="#5ECEDB" transform="translate(104,133)"/>
<path d="M0 0 C0.66 0 1.32 0 2 0 C2.50512244 1.60256108 3.00391627 3.20711792 3.5 4.8125 C3.7784375 5.70582031 4.056875 6.59914063 4.34375 7.51953125 C5 10 5 10 5 13 C4.01 12.67 3.02 12.34 2 12 C0.78306124 9.56612247 0.68040104 7.58161154 0.4375 4.875 C0.35371094 3.96492188 0.26992188 3.05484375 0.18359375 2.1171875 C0.12300781 1.41851562 0.06242187 0.71984375 0 0 Z " fill="#31F1A2" transform="translate(18,121)"/>
<path d="M0 0 C0.99 0 1.98 0 3 0 C1.83709195 3.48872415 0.86032391 4.09976864 -2.0625 6.1875 C-2.79597656 6.71730469 -3.52945313 7.24710938 -4.28515625 7.79296875 C-4.85105469 8.19128906 -5.41695312 8.58960938 -6 9 C-6.33 8.34 -6.66 7.68 -7 7 C-6.34 7 -5.68 7 -5 7 C-4.896875 6.360625 -4.79375 5.72125 -4.6875 5.0625 C-4.460625 4.381875 -4.23375 3.70125 -4 3 C-3.01 2.67 -2.02 2.34 -1 2 C-0.67 1.34 -0.34 0.68 0 0 Z " fill="#42B0D6" transform="translate(142,156)"/>
<path d="M0 0 C0 4.54960762 -2.12127294 7.07105996 -5.1875 10.3125 C-6.0846875 11.1478125 -6.0846875 11.1478125 -7 12 C-7.66 11.67 -8.32 11.34 -9 11 C-7.68823998 9.35357683 -6.3755713 7.70787757 -5.0625 6.0625 C-4.33160156 5.14597656 -3.60070312 4.22945312 -2.84765625 3.28515625 C-1 1 -1 1 0 0 Z " fill="#54DFAE" transform="translate(34,50)"/>
<path d="M0 0 C4.85077588 1.11940982 7.777893 2.1334716 11 6 C6.89791983 6 6.29921062 5.86243878 3.25 3.5625 C2.63640625 3.11003906 2.0228125 2.65757812 1.390625 2.19140625 C0.93171875 1.79824219 0.4728125 1.40507812 0 1 C0 0.67 0 0.34 0 0 Z " fill="#40D9AD" transform="translate(42,161)"/>
<path d="M0 0 C3 0 3 0 5.5625 2.1875 C7.83774012 4.81277706 8.97053677 6.72443519 10 10 C6.54804233 8.5741914 4.8985744 6.90253666 2.75 3.875 C1.96882813 2.78832031 1.96882813 2.78832031 1.171875 1.6796875 C0.78515625 1.12539062 0.3984375 0.57109375 0 0 Z " fill="#3FE2AA" transform="translate(32,151)"/>
<path d="M0 0 C1.18681726 3.56045177 1.09689832 6.43808337 1.0625 10.1875 C1.05347656 11.45980469 1.04445313 12.73210937 1.03515625 14.04296875 C1.02355469 15.01878906 1.01195312 15.99460937 1 17 C0.34 17 -0.32 17 -1 17 C-2.14237655 13.47909316 -1.95528861 10.47691824 -1.625 6.8125 C-1.53476562 5.74644531 -1.44453125 4.68039063 -1.3515625 3.58203125 C-1 1 -1 1 0 0 Z " fill="#89ECCC" transform="translate(27,94)"/>
<path d="M0 0 C1.45606519 4.52092968 0.27032841 7.51648796 -1 12 C-3.5654594 9.4345406 -3.54046087 7.52313332 -4 4 C-3.01 4 -2.02 4 -1 4 C-0.67 2.68 -0.34 1.36 0 0 Z " fill="#0BC5CB" transform="translate(101,93)"/>
<path d="M0 0 C5.28 0 10.56 0 16 0 C16 0.33 16 0.66 16 1 C15.31292969 1.06058594 14.62585938 1.12117187 13.91796875 1.18359375 C12.56638672 1.30927734 12.56638672 1.30927734 11.1875 1.4375 C9.84751953 1.55931641 9.84751953 1.55931641 8.48046875 1.68359375 C5.87256441 1.93489767 5.87256441 1.93489767 3 3 C2.01 2.67 1.02 2.34 0 2 C0 1.34 0 0.68 0 0 Z " fill="#45DAD6" transform="translate(80,177)"/>
<path d="M0 0 C0.86625 0.2784375 0.86625 0.2784375 1.75 0.5625 C4.20692525 1.04023546 5.64397534 0.75729364 8 0 C7.42655063 2.86724686 7.1385485 3.8614515 5 6 C4.67 5.01 4.34 4.02 4 3 C3.01 3 2.02 3 1 3 C0.67 2.01 0.34 1.02 0 0 Z " fill="#12EEA1" transform="translate(31,148)"/>
<path d="M0 0 C0.25 5.625 0.25 5.625 -2 9 C-2.66 9 -3.32 9 -4 9 C-3.4140625 2.84765625 -3.4140625 2.84765625 -3 1 C-1 0 -1 0 0 0 Z " fill="#5ACEE1" transform="translate(109,122)"/>
<path d="M0 0 C0.33 0 0.66 0 1 0 C1.08121924 1.60332791 1.13929134 3.20784026 1.1875 4.8125 C1.23970703 6.15248047 1.23970703 6.15248047 1.29296875 7.51953125 C0.95081002 10.41647515 0.24606427 11.22555028 -2 13 C-1.85851011 11.3954444 -1.71164314 9.79136233 -1.5625 8.1875 C-1.48128906 7.29417969 -1.40007812 6.40085937 -1.31640625 5.48046875 C-1 3 -1 3 0 0 Z " fill="#59D2C7" transform="translate(72,116)"/>
<path d="M0 0 C0.66 0 1.32 0 2 0 C2.25 5.625 2.25 5.625 0 9 C-0.66 9 -1.32 9 -2 9 C-1.34 6.03 -0.68 3.06 0 0 Z " fill="#5CEBBF" transform="translate(39,108)"/>
<path d="M0 0 C0.33 0 0.66 0 1 0 C1.40652968 5.42039575 0.03993514 9.07015675 -2 14 C-2.99 13.01 -3.98 12.02 -5 11 C-4 8 -4 8 -2.5 6.625 C-0.56690264 4.53081119 -0.37547204 2.77849308 0 0 Z " fill="#1DC7D9" transform="translate(110,56)"/>
<path d="M0 0 C0.66 0 1.32 0 2 0 C2.3125 2.8125 2.3125 2.8125 2 6 C-0.5 7.875 -0.5 7.875 -3 9 C-2.01 6.03 -1.02 3.06 0 0 Z " fill="#08C4CF" transform="translate(102,159)"/>
<path d="M0 0 C0.33 1.32 0.66 2.64 1 4 C0.01 4.33 -0.98 4.66 -2 5 C-2.33 5.99 -2.66 6.98 -3 8 C-3.99 7.67 -4.98 7.34 -6 7 C-4.19587357 3.73539027 -3.16605307 2.11070205 0 0 Z " fill="#13A6EF" transform="translate(154,141)"/>
<path d="M0 0 C0.99 0.33 1.98 0.66 3 1 C2.67 3.31 2.34 5.62 2 8 C1.34 8 0.68 8 0 8 C-0.33 8.66 -0.66 9.32 -1 10 C-0.67 6.7 -0.34 3.4 0 0 Z " fill="#0DD5B8" transform="translate(75,112)"/>
<path d="M0 0 C0.92556607 2.77669822 1.19295491 4.67696895 1.25 7.5625 C1.27578125 8.34753906 1.3015625 9.13257812 1.328125 9.94140625 C1.16570312 10.96041016 1.16570312 10.96041016 1 12 C0.01 12.66 -0.98 13.32 -2 14 C-1.85970581 11.8537974 -1.71261836 9.70803782 -1.5625 7.5625 C-1.48128906 6.36753906 -1.40007812 5.17257813 -1.31640625 3.94140625 C-1 1 -1 1 0 0 Z " fill="#20D6CA" transform="translate(86,61)"/>
<path d="M0 0 C0.66 0 1.32 0 2 0 C1.34 3.63 0.68 7.26 0 11 C-0.99 11 -1.98 11 -3 11 C-2.01 7.37 -1.02 3.74 0 0 Z " fill="#1DC6DC" transform="translate(113,40)"/>
<path d="M0 0 C0.66 0.33 1.32 0.66 2 1 C1.01 1.33 0.02 1.66 -1 2 C-1.33 2.99 -1.66 3.98 -2 5 C-4.31 5.33 -6.62 5.66 -9 6 C-3.30379747 1.25316456 -3.30379747 1.25316456 0 0 Z " fill="#56D8B6" transform="translate(56,33)"/>
<path d="M0 0 C0.99 0.66 1.98 1.32 3 2 C1.87687034 5.36938898 0.46825907 6.53174093 -2 9 C-1.125 2.25 -1.125 2.25 0 0 Z " fill="#08D9B6" transform="translate(69,145)"/>
<path d="M0 0 C0.4125 0.639375 0.825 1.27875 1.25 1.9375 C3.17810487 4.20990931 4.11424181 4.60196439 7 5 C6.01 6.485 6.01 6.485 5 8 C2.5 6.8125 2.5 6.8125 0 5 C-0.3125 2.3125 -0.3125 2.3125 0 0 Z " fill="#28F2AE" transform="translate(30,127)"/>
<path d="M0 0 C0.33 0 0.66 0 1 0 C1.33 2.31 1.66 4.62 2 7 C1.01 7.66 0.02 8.32 -1 9 C-1.625 6.1875 -1.625 6.1875 -2 3 C-1.34 2.01 -0.68 1.02 0 0 Z " fill="#1AB5E1" transform="translate(131,21)"/>
<path d="M0 0 C0.75 1.75 0.75 1.75 1 4 C-0.9375 6.25 -0.9375 6.25 -3 8 C-3.66 7.67 -4.32 7.34 -5 7 C-1.125 1.125 -1.125 1.125 0 0 Z " fill="#2BB1E0" transform="translate(141,142)"/>
<path d="M0 0 C0.33 1.32 0.66 2.64 1 4 C0.34 4 -0.32 4 -1 4 C-1.33 5.98 -1.66 7.96 -2 10 C-2.33 10 -2.66 10 -3 10 C-3.36923077 4.58461538 -3.36923077 4.58461538 -1.5 1.625 C-1.005 1.08875 -0.51 0.5525 0 0 Z " fill="#14A7F9" transform="translate(161,126)"/>
<path d="M0 0 C0.99 0.33 1.98 0.66 3 1 C4.25541557 4.76624671 3.37061958 6.37188934 2 10 C0.89131683 6.67395049 0.45822468 3.46941546 0 0 Z " fill="#0FDDB4" transform="translate(64,90)"/>
<path d="M0 0 C1.65 0.33 3.3 0.66 5 1 C5 1.99 5 2.98 5 4 C2.69 3.67 0.38 3.34 -2 3 C-1.34 2.01 -0.68 1.02 0 0 Z " fill="#07DCAE" transform="translate(65,169)"/>
<path d="M0 0 C1.32 0.66 2.64 1.32 4 2 C3.01 2 2.02 2 1 2 C0.67 3.65 0.34 5.3 0 7 C-0.66 7 -1.32 7 -2 7 C-1.125 1.125 -1.125 1.125 0 0 Z " fill="#11E9A3" transform="translate(40,55)"/>
<path d="M0 0 C0.33 0.66 0.66 1.32 1 2 C0.01 2.495 0.01 2.495 -1 3 C-1.33 3.99 -1.66 4.98 -2 6 C-1.34 6.33 -0.68 6.66 0 7 C-1.32 7 -2.64 7 -4 7 C-3.67 5.02 -3.34 3.04 -3 1 C-2.01 0.67 -1.02 0.34 0 0 Z " fill="#14C9C7" transform="translate(95,38)"/>
<path d="M0 0 C0 0.99 0 1.98 0 3 C-0.99 3.33 -1.98 3.66 -3 4 C-5.1875 2.5625 -5.1875 2.5625 -7 1 C-4 0 -4 0 0 0 Z " fill="#0DD4BB" transform="translate(82,28)"/>
</svg>
