<?xml version="1.0" encoding="UTF-8"?>
<!-- Generated by Pixelmator Pro 3.6.12 -->
<svg width="785" height="785" viewBox="0 0 785 785" xmlns="http://www.w3.org/2000/svg">
    <g id="g10">
        <g id="g12">
            <clipPath id="clipPath1">
                <path d="M -174 -174.858543 L 959.858643 -174.858543 L 959.858643 959.0001 L -174 959.0001 Z"/>
            </clipPath>
            <g id="g14" clip-path="url(#clipPath1)">
                <path id="path20" fill="#1ab4d7" stroke="none" d="M 392.577332 784.542786 C 609.023987 784.542786 784.486633 609.080078 784.486633 392.632141 C 784.486633 176.186829 609.023987 0.722778 392.577332 0.722778 C 176.130646 0.722778 0.666656 176.186829 0.666656 392.632141 C 0.666656 609.080078 176.130646 784.542786 392.577332 784.542786"/>
                <path id="path22" fill="#ffffff" stroke="none" d="M 188.267975 391.500122 L 255.150665 324.452087 C 257.367981 322.192139 258.605347 319.200134 258.605347 316.026794 C 258.605347 309.413452 253.229309 304.042786 246.615997 304.042786 C 243.394653 304.042786 240.374664 305.305481 238.097321 307.610779 L 171.274658 374.401428 L 104.15332 307.510803 C 101.885315 305.27478 98.880005 304.042786 95.693329 304.042786 C 89.087982 304.042786 83.710663 309.410828 83.710663 316.017456 C 83.710663 319.240112 84.997314 322.264099 87.306641 324.542786 L 154.179993 391.406799 L 87.341309 458.370789 C 84.992004 460.684113 83.710663 463.714783 83.710663 466.952087 C 83.710663 473.564117 89.087982 478.928131 95.693329 478.928131 C 98.885315 478.928131 101.893311 477.689453 104.15332 475.428131 L 171.170654 408.501465 L 237.93335 475.184113 C 240.301331 477.632111 243.355988 478.936096 246.615997 478.936096 C 253.222656 478.936096 258.598663 473.564117 258.598663 466.952087 C 258.598663 463.761475 257.362671 460.764099 255.113312 458.504089 Z"/>
                <path id="path24" fill="#ffffff" stroke="none" d="M 585.874634 391.480103 C 585.874634 403.488098 595.638672 413.256104 607.661255 413.256104 C 619.656006 413.256104 629.42395 403.488098 629.42395 391.480103 C 629.42395 379.469421 619.656006 369.70282 607.661255 369.70282 C 595.638672 369.70282 585.874634 379.469421 585.874634 391.480103"/>
                <path id="path26" fill="#ffffff" stroke="none" d="M 544.573303 391.490784 C 544.573303 356.717468 572.861328 328.424133 607.638672 328.424133 C 642.398682 328.424133 670.693359 356.717468 670.693359 391.490784 C 670.693359 426.256104 642.398682 454.537476 607.638672 454.537476 C 572.861328 454.537476 544.573303 426.256104 544.573303 391.490784 M 519.765259 391.490784 C 519.765259 439.936096 559.185303 479.350769 607.638672 479.350769 C 656.090637 479.350769 695.53064 439.936096 695.53064 391.490784 C 695.53064 343.038757 656.090637 303.613464 607.638672 303.613464 C 559.185303 303.613464 519.765259 343.038757 519.765259 391.490784"/>
                <path id="path28" fill="#ffffff" stroke="none" d="M 513.527954 305.11615 L 509.841309 305.105469 C 498.773315 305.105469 488.098633 308.59613 479.182617 315.466797 C 478.007996 310.090759 473.202637 306.045471 467.478638 306.045471 C 460.890625 306.045471 455.612 311.324158 455.595947 317.925476 L 455.635986 465.925446 C 455.65332 472.514771 461.027954 477.870789 467.619995 477.870789 C 474.210632 477.870789 479.583984 472.514771 479.601318 465.910797 L 479.606628 374.909485 C 479.606628 344.578796 482.380005 332.329468 508.361328 329.082825 L 513.385315 328.83075 C 520.494629 328.586792 525.546631 323.701477 525.546631 317.098816 C 525.546631 310.492126 520.15332 305.11615 513.527954 305.11615"/>
                <path id="path30" fill="#ffffff" stroke="none" d="M 283.429321 377.024109 L 283.470642 376.017456 C 290.428009 348.514771 315.335999 328.162781 345 328.162781 C 375.022644 328.162781 400.15863 349.014771 406.76001 377.024109 Z M 431.299988 374.761475 C 426.135986 350.312134 412.75061 330.229431 392.367981 317.332092 C 362.573303 298.416138 323.229309 299.462769 294.450684 319.928162 C 270.975983 336.628113 257.425323 363.946777 257.425323 392.088135 C 257.425323 399.144104 258.276001 406.266785 260.046661 413.277466 C 268.910675 448.146759 298.886658 474.542786 334.625305 478.917419 C 345.230652 480.201447 355.553345 479.586792 366.242676 476.818787 C 375.427979 474.584106 384.315979 470.858795 392.50531 465.610779 C 401.00531 460.146759 408.106628 452.941437 414.984009 444.316101 L 415.401306 443.850769 C 420.174683 437.930786 419.289307 429.512146 414.043945 425.493469 C 409.619995 422.102783 402.193298 420.728088 396.349304 428.212097 L 392.149292 433.684143 C 387.502686 438.818787 381.737305 443.793457 374.829346 447.65213 C 366.038635 452.348083 356.021301 455.032104 345.371948 455.092102 C 310.515991 454.704132 291.864014 430.373474 285.229309 413.006775 C 284.070679 409.764099 283.177307 406.400085 282.554626 402.936096 L 282.389313 401.086792 L 407.471985 401.066772 C 424.619995 400.706787 433.849304 388.602783 431.299988 374.761475"/>
            </g>
        </g>
    </g>
</svg>
